<svg xmlns="http://www.w3.org/2000/svg" viewBox="0 0 1024 768">
  <title>NINJA5.pizza</title>
  <path d="M358 81c-3.691 3.251-10.13 13.72-13 10-11.36-29.63-49.67-38.39-73.25-16.25S213.23 65.61 202 44c-3.67 11.59 2.5 26.27 6.02 36.98 3.53 10.7 8.7 20.59 16.73 28.27 8.03 7.68 20.27 11.27 29.24 14.76 8.98 3.48 30.38 2.65 29.79 14.77-.59 12.11-6.34 26.12.22 38.22-9.09-5.84-19.01-9.78-30-10-4.66-.09-9.34 0-14 0-21.76-.29-34.09-21.98-48.08-36.92C177.93 115.15 169.08 93.75 162 75c-4.04 5.26-3 14.02-3 21v10c6.12 36.13 19.77 69.1 37.25 101.75C213.73 240.41 261 246.05 293 250c-1.44 15.74-8 29.89-8 46 0 9.58-.75 20.22-1 29 1.52 22.29 5.24 44.8 17 64 5.12 8.35 7.84 10.72.75 17.75-7.08 7.03-7.93 10.46-12.75 18.25-2.13 3.44-3.64 6.93-4 11-.35 3.93 0 8.05 0 12 0 4.4 1.22 11.57-1 15-3.85 5.97-13.88 6.98-19.08 11.92-5.19 4.95-13.14 8.48-18.67 13.33-5.53 4.85-13.61 8.33-19.25 12.75-.51.4-1.53 1.55-2 2-16.38 15.76-33.3 25.04-43.08 46.92-9.77 21.89-16.27 44.9-20.14 68.86C157.9 642.73 151.5 672.25 149 696c-2.51 23.75 19.53 43.78 42 45 4.67.25 10.38.7 15 0 7.2-2.04 13.27-6.11 19.77-10.23s11.77-6.53 17.98-.52c6.22 6 11.09 9.44 19.25 9.75 5.59-.33 13.89-.07 20-1 14.46-8.49 32.18-.88 49-3s34.23 2.36 51 3c16.77.64 23.22-10.19 33-22 12.4 5.68 24.77 14.46 39 15 3.99.15 8.01 0 12 0 25.78-1.24 54.58 3.28 77-11 4.61 8 18.73 7.68 27.99 10.01 9.27 2.33 21.92 4.19 30.98 6.01 9.07 1.83 10.34-14.11 17.03-18.02 7.22 7.09 15.33 13.41 22 21 13.11-3.54 26.87-5.49 39.93-9.07 13.05-3.58 25.28 6.03 39.07 5.07s30.21-1.92 42.98-5.02c12.76-3.11 24.53-6.81 35.79-12.21 11.26-5.4 19.91-10.96 28.98-19.02 9.08-8.05 16.22-14.38 24.33-23.67 8.11-9.29 11.86-19.59 16.94-31.06 5.08-11.46 4.81-29.4 1.3-41.34-3.51-11.95-15.13-21.48-4.07-31.43 11.05-9.96 4.8-24.15 11.42-36.58 6.62-12.42-.71-22.02-9.42-31.92-8.72-9.9-15.19-19.12-30.25-17.75-15.06 1.37-32.7-.01-48 0h-1c-3.86 0-7.84.29-11-1-5.49-2.24-10.89-11.25-15.25-15.75-4.35-4.5-15.36-10.47-13.75-17.25-.6-6.64.43-14.14 1-20 0-11.97.21-26.14-1.78-37.22-1.99-11.09-10.66-15.91-14.22-25.78-3.91-1.63-9.26-8.27-9-11 .61-6.44 4.9-13.85 7-20 9.67-28.27 2.66-53.61 0-82-4.06-43.32-5.53-99.2-33.25-133.75-27.71-34.55-55.04-53.09-93.67-72.33-38.64-19.23-93.55-32.72-137.06-23.9-40.535 8.228-73.752 22.812-104.479 48.998-2.227 1.898-4.301 4.009-6.541 5.982Z" fill="#010812"/>
  <path d="M461.638 46.652C459.699 47.43 453.87 50.33 450 52c-20.46 8.83-38.66 20.38-55.75 35.25-17.1 14.87-29.23 31.5-40.55 51.44-11.33 19.95-21.93 40.25-27.03 63.98-5.09 23.74-6.76 53.67-14.6 77.4-7.83 23.74-3.96 56.54 4.93 78.93-1.21-20.25-6.14-49.06.98-69.02 7.12-19.97 10.72-44.87 11.35-65.65.63-20.78 6.23-42.51 18.42-57.58 12.19-15.07 23.21-26.58 35.5-41.5 12.29-14.93 24.35-25.24 40.45-35.55 16.1-10.31 32.46-18.49 50.98-26.02 18.51-7.54 44.84-11.9 65.32-5.68-.76-4.81-1.44-9.72-4-14-22.99-6.23-49.38-7.374-74.362 2.652Z" fill="#666e7f"/>
  <path d="M317 359c10.64 26.77 25.88 45.08 46 66 5.33 5.27 13.16 8.11 20 11-14.72-14.95-25.7-27.77-34.08-46.92-8.37-19.16-18.73-42.66-13.92-65.08 4.81-22.42 5.04-50.03 8.67-72.33 3.63-22.3 6.82-46.79 12.55-67.45 5.73-20.65 19.4-32.6 32.03-48.97 12.63-16.38 27.12-25.89 44-37C449.14 87.15 470.73 74.7 493 79c-4.24 8.71-15.49 13.6-19 23 11.69-3.51 26.97-1.95 39-3 12.03-1.05 31.38 5.36 35.22-6.78S544.33 70.06 542 59c3.23-.14 6.09 1.01 9 2-3.95-3.06-6.69-11.8-9-14-1.7-.74-3.91-2.43-6-3 2.56 4.28 3.24 9.19 4 14-20.48-6.22-46.81-1.86-65.32 5.68-18.52 7.53-34.88 15.71-50.98 26.02-16.1 10.31-28.16 20.62-40.45 35.55-12.29 14.92-23.31 26.43-35.5 41.5-12.19 15.07-17.79 36.8-18.42 57.58-.63 20.78-4.23 45.68-11.35 65.65-7.12 19.96-2.19 48.77-.98 69.02Z" fill="#363d4c"/>
  <path d="M551 61c9.49 3.12 18.55 8.04 27 13-6.92-15.07-22.28-21.01-36-27 2.31 2.2 5.05 10.94 9 14Z" fill="#515869"/>
  <path d="M303 312v9c0 22.52 6.09 45.8 18.08 63.92 11.99 18.11 25.16 27.62 41.92 40.08-20.12-20.92-35.36-39.23-46-66-8.89-22.39-12.76-55.19-4.93-78.93 7.84-23.73 9.51-53.66 14.6-77.4 5.1-23.73 15.7-44.03 27.03-63.98 11.32-19.94 23.45-36.57 40.55-51.44C411.34 72.38 429.54 60.83 450 52c-.18-.01-.65-.96-1-1-23.85 8.59-46.95 18.44-66.77 35.23-19.82 16.79-34.02 33.31-44.46 57.54-10.44 24.23-20.75 51.4-22.79 79.21C312.93 250.79 303 283.44 303 312Z" fill="#f2f3f4"/>
  <path d="M704 192c-.38 1.33 2.84-.87 3-2-9.71-61.89-67.96-105.01-122-128 27.21 14.27 48.99 30.36 74.75 50.25 25.76 19.88 39 48.7 44.25 79.75Z" fill="#6a717d"/>
  <path d="M240 100c4.27 1.26 9.4 1.09 14 1 24.52-.49 38.9-29.36 64-13 2.73 1.78 9.25 7.69 10 9-3.9-10.39-14.98-20.25-26.99-18.99-12.01 1.25-20.35 9.12-30.78 15.22-10.43 6.1-26.64 5.08-37.23 2.77 1.96 1.9 4.87 2.7 7 4Z" fill="#dfe2e6"/>
  <path d="M254 101c-2.93.35-7.37 1.88-11 1 14.64 7.8 35.16-2.98 50-7 9.11-2.47 24.01-5.91 29 5 1.33 2.92 2.83 6.08 4 9-.7-7.4-1.67-14.61-8-21-25.1-16.36-39.48 12.51-64 13Z" fill="#5e6677"/>
  <path d="M326 109c1.13 2.88 2.03 5.83 2 9 1.66-5.84 1.67-15.09 0-21-.75-1.31-7.27-7.22-10-9 6.33 6.39 7.3 13.6 8 21Z" fill="#444c5c"/>
  <path d="M293 95c-6.39 10.14-27.23 8.6-37 13 12.8 7.11 34.74-9.54 44 6 2.73.08 4.26 3.68 5 6 2.36 7.37.27 15.27-1 22-2.12 11.19-1.03 21.64-1 33 .18.45 1.83.7 2 1 4.25-25.51 22.15-50.48 14-78 .85.54 2.31 1.21 3 2-4.99-10.91-19.89-7.47-29-5Z" fill="#353d4b"/>
  <path d="M301 137c.89-2.55 1.79-4.88 2-8 .37-5.39.22-9.99-3-14-2.5 1.79-6.35-2.64-10-1 6.68 6.34 11.67 13.47 11 23Z" fill="#353c4c"/>
  <path d="M300 115c3.22 4.01 3.37 8.61 3 14 .33-1.84 2.18-7.33 2-9-.74-2.32-2.27-5.92-5-6 0 0-.24.7 0 1Z" fill="#6b7384"/>
  <path d="M412 142c28.14-10.93 57.51-22 90-22 8.18-.79 17.89-.78 26 0 13.24 0 27.52 3.36 39.98 5.02 12.45 1.67 21.93 9.08 34.02 9.98-.25-.28 0-1 0-1-60.96-26.92-132.35-27.69-190 8Z" fill="#e7e8ea"/>
  <path d="M303 129c-.21 3.12-1.11 5.45-2 8-.03.5.06 1.51 0 2 .89-.62.84-1.66 2-2 1.21 1.4.98 3.26 1 5 1.27-6.73 3.36-14.63 1-22 .18 1.67-1.67 7.16-2 9Z" fill="#9298a8"/>
  <path d="M412 142c-7.29 4.51-12.83 9.83-19 16 15.74-11.7 37.52-17.28 56-22 4.03-1.03 10.14-4.67 14-3-4.28 1.44-8.58 2.86-13 4-23.64 7.27-45.22 20.97-67 32 .3-1.25 1.83-1.71 2-3-7.06 5.42-8.47 14.72-13 22 7.88-3.9 14.55-11.07 23-14-6.94 6.98-15.77 12.77-22 21 16.93-7.2 34.69-18.1 53-17-20.25 8.06-39.37 19.15-57 32 20.03-7.48 41.66-17.88 62-21-21.79 8.65-42.52 20.51-61 35 14.14-4.9 28.4-11.55 42.78-16.22 14.37-4.67 27.89-11.02 42.2-15.8 14.3-4.79 27.29-11.1 41.34-16.66 14.06-5.55 24.02-12.11 34.43-23.57 10.41-11.45-.48-26.85-13.75-31.75h-15c-32.49 0-61.86 11.07-90 22Z" fill="#363e4c"/>
  <path d="M449 136c.35.04.8.98 1 1 4.42-1.14 8.72-2.56 13-4-3.86-1.67-9.97 1.97-14 3Z" fill="#989fae"/>
  <path d="M602 135c4.87 2.98 10.43 6.03 16 8-4.18-4.42-10.42-6.54-16-9 0 0-.25.72 0 1Z" fill="#7f858e"/>
  <path d="M393 158c-2.58 2.58-5.45 5.27-8 8-.17 1.29-1.7 1.75-2 3 21.78-11.03 43.36-24.73 67-32-.2-.02-.65-.96-1-1-18.48 4.72-40.26 10.3-56 22Z" fill="#e5e7ea"/>
  <path d="M301 139c-1.87 15.75-5.04 25.6 1 41 .01-.18.89-.65 1-1 .33-1.08 0-2.86 0-4-.03-11.36-1.12-21.81 1-33-.02-1.74.21-3.6-1-5-1.16.34-1.11 1.38-2 2Z" fill="#dbdde1"/>
  <path d="M187 149c4.36 7.88 13.97 14.78 20.25 21.75 6.28 6.97 18.46 13.62 27.75 14.25-.19-.08.14-1.96 0-2-21.16-2.43-33.79-24.63-49-38 .12 1.47.68 2.62 1 4Z" fill="#787f8d"/>
  <path d="M191 159c7.66 10.46 12.65 26.91 22.77 39.23C223.89 210.55 238.83 218.4 253 224c-.26 1.39-2.05.78-3 1 9.7 1.67 21.15 1.64 30 7-8.56-15.91-24.79-25.41-42-29 20.43-2.97 42.08 3.95 60 13-.44-3.18.65-7.75 0-10 .98 1.12-2.05-1.04-2-1-17.2-14.35-39.05-18.51-61-20-9.29-.63-21.47-7.28-27.75-14.25-6.28-6.97-15.89-13.87-20.25-21.75.8 3.45 2.88 6.97 4 10Z" fill="#363e4c"/>
  <path d="M191 159c10.66 28.89 25.13 59.93 59 66 .95-.22 2.74.39 3-1-14.17-5.6-29.11-13.45-39.23-25.77-10.12-12.32-15.11-28.77-22.77-39.23Z" fill="#6e7584"/>
  <path d="M610 159c16.84 7.15 33.24 15.56 49 25-9.98-15.84-32.1-20.51-49-26 0 0-.25.78 0 1Z" fill="#767e89"/>
  <path d="M662 191c-2.56-7.1-10.6-10.19-17-13 5.02 4.74 11.98 8.91 17 13Z" fill="#3f4653"/>
  <path d="M302 180c-.16 2.29 2.14 3.75 2 6 1.64-.51.89-2.71 1-4-.12-.54-1.88-2.42-2-3-.11.35-.99.82-1 1Z" fill="#a5a9b5"/>
  <path d="M235 185c21.95 1.49 43.8 5.65 61 20-.93-1.34-3.7-5.87-6-8-16.87-13.31-33.88-13.19-55-14 .14.04-.19 1.92 0 2Z" fill="#e4e6e8"/>
  <path d="M704 192c3.19 18.87 4.3 38.65 6.01 57.99 1.7 19.34 7.39 35.9 6.99 56.01.32-1.56 2.73-4.48 3-6 0-19.1-6.91-36.04-7-55-.09-18.96-1.65-37.18-6-55-.16 1.13-3.38 3.33-3 2Z" fill="#565c6c"/>
  <path d="M781 202c2.16-7.26 14.59-10.57 13 0 2.78-3.55-1.67-9.43-5.92-8.92-4.26.5-6.71 5.33-7.08 8.92Z" fill="#fbeab0"/>
  <path d="M781 202c-.1.98.14 2.02 0 3-.61 4.26-5.37 6.41-6.75 10.25s-6.97 5.93-6.17 10.83c.8 4.89 6.75-4.35 7.92-5.08 0 0-.22-.64 0-1 4.51-7.25 11.2-12.26 18-17 0 0-.07-.51 0-1 1.59-10.57-10.84-7.26-13 0Z" fill="#f4af23"/>
  <path d="M296 205c-.05-.04 2.98 2.12 2 1-1.07-3.69-4.95-6.59-8-9 2.3 2.13 5.07 6.66 6 8Z" fill="#838790"/>
  <path d="M667 209c-1.89-4.36-6.65-9.06-11-11 3.11 3.97 7.02 7.81 11 11Z" fill="#363d4a"/>
  <path d="M617 207c.16 0 .65-.96 1-1-8.21-2.54-19.29-5.39-28-3 9.34.01 18.23 1.83 27 4Z" fill="#28303a"/>
  <path d="M776 220c3.35-2.34 6.24-6.39 8.92-9.08 2.69-2.68 8.79-3.32 9.08-7.92-6.8 4.74-13.49 9.75-18 17Z" fill="#fdeeb8"/>
  <path d="M776 221c-1.17.73-7.12 9.97-7.92 5.08-.8-4.9 4.79-6.99 6.17-10.83s6.14-5.99 6.75-10.25c-1.41 3.82-7.87 6.13-9.08 9.92-1.2 3.8-7.46 8.74-4.17 13.32 3.3 4.59 6.73-4.82 8.25-7.24Z" fill="#fbecba"/>
  <path d="M617 207c3.87.96 7.25 2.72 11 4-.86-.8-.18-2.27 0-2-2.9-.88-6.84-1.97-10-3-.35.04-.84 1-1 1Z" fill="#49505d"/>
  <path d="M660 219c.88.46 1.91 1.49 3 2 1.65-2.14 4.68 1.28 7 1-.93-6.02-6.85-11.33-12-14 2.18 4.44 8.98 6.63 9 12-2.54-3.79-6.82-1-7-1Z" fill="#2d3643"/>
  <path d="M628 211c14.68 5.29 29.56 11.12 43 19 1.3-6.49-3.7-6.99-8-9-1.09-.51-2.12-1.54-3-2-9.47-4.91-21.84-6.92-32-10-.18-.27-.86 1.2 0 2Z" fill="#656c7a"/>
  <path d="M746 212c-.22 11.67 13.64-2.8 0 0Z" fill="#f1a05b"/>
  <path d="M499 215h26c-8.11-.78-17.82-.79-26 0Z" fill="#65453c"/>
  <path d="M421 241c6.75.17 14.02-6.19 22.01-5.99 7.98.2 17.17-2.14 25.66-2.34 8.49-.2 18.44-.73 27.33-.67 8.89.06 18.29.89 27 1 8.71.11 17.72 1.5 26.01 1.99 8.29.49 16.22 3.1 24 4 7.77.9 14.71 6.47 21.99 6.01 6.25-3.19 10.81-5.84 17.23-8.77 6.42-2.93 14.59-3.05 19.52 3.02 4.93 6.06-7.03 8.9-11.75 10.75 4.94 3.71 10.09 5.39 16.23 7.77 6.14 2.38 11.24 5.65 12.55 12.45 1.31 6.81 2.92 14.14 3.22 20.78.29 6.64-5.03 12.87-6.92 18.08-1.9 5.2-6.99 11.75-8.38 15.62-1.4 3.86-10.91 12.86-7.7 15.3.5 0 1.51.06 2 0 9.74-1.16 22.22-1.77 26.07-11.93 3.85-10.15 4.37-18.87 6.93-30.07 2.57-11.2-1.03-24.86 1-37 2.03-12.14-5.46-17.57-15.77-21.23-10.31-3.66-17.08-7.21-27.56-9.44-10.48-2.24-20.16-5.02-30.66-7.34-10.5-2.31-21.11-3.58-31.99-5.01-10.87-1.43-22.7-2.98-34.02-2.98h-26c-32.62.97-65.1 5.89-94 19 5.56 1.53 10.94 4.09 16 7Z" fill="#dc9179"/>
  <path d="M740 222c-4.37-1.33-5.7 5.86-2.03 6.97 3.68 1.12 5.44-5.93 2.03-6.97Z" fill="#fbe8c9"/>
  <path d="M737 227c8.11.49-.55-8.07 0 0Z" fill="#e79654"/>
  <path d="M421 241c20.27 9.01 42 29.28 65 21 1.67 11.45-12.42 20.53-22 15-.15 1.6 1.01 2.45 1 4 .36 3.11.7 5.84 0 9-2.21 17.72-24.32 25.64-38.3 15.3-13.98-10.33-13.11-31.24-1.7-43.3-6.93-.37-14.46-1.06-20-5 5.07-3.05 11.36 3.74 16 1-7.05-3.23-14.93-5.09-22-8-16.67-1.08-28.44 17.21-27 33 1.44 15.79-.2 38.36 8 53 6.07.59 11.74 1 18 1h14c35.49 0 69.6-29.47 105.98-23.98 36.37 5.5 65.26 26.23 103.02 26.98 2.66.05 5.34 0 8 0-3.21-2.44 6.3-11.44 7.7-15.3 1.39-3.87 6.48-10.42 8.38-15.62 1.89-5.21 7.21-11.44 6.92-18.08-.3-6.64-1.91-13.97-3.22-20.78-1.31-6.8-6.41-10.07-12.55-12.45-6.14-2.38-11.29-4.06-16.23-7.77-3.78 1.48-7.23 3.48-11 5 .3.04 2.22.85 3 1 1.46.28 3.69-.16 4 2-4.95 1.47-9.85 3.11-15 4-.4.29-.92 2.75-2 3 17.39 9.4 11.52 40.98-7 42-19.66 9.94-43.01-7.87-35-30-10.08 4.63-21.91-4.19-21-15 20.35 8.26 40.5-9.62 59-17-7.28.46-14.22-5.11-21.99-6.01-7.78-.9-15.71-3.51-24-4-8.29-.49-17.3-1.88-26.01-1.99-8.71-.11-18.11-.94-27-1-8.89-.06-18.84.47-27.33.67-8.49.2-17.68 2.54-25.66 2.34-7.99-.2-15.26 6.16-22.01 5.99Z" fill="#fcdebc"/>
  <path d="M595 245c-18.5 7.38-38.65 25.26-59 17-.91 10.81 10.92 19.63 21 15-8.01 22.13 15.34 39.94 35 30 8.37-4.23 12.71-12.98 13-22-7.08.2-7.72-9.79-1-11-1.52-3.44-3.51-7.1-7-9-.53-2.53 2.74-1.75 4-3 5.15-.89 10.05-2.53 15-4-.31-2.16-2.54-1.72-4-2-5.61.13-12.02 5.52-18 6 4.02-3.34 9.79-5.49 15-7 3.77-1.52 7.22-3.52 11-5 4.72-1.85 16.68-4.69 11.75-10.75-4.93-6.07-13.1-5.95-19.52-3.02S601.25 241.81 595 245Z" fill="#020811"/>
  <path d="M829 235c6.78-.94 12.63 3.96 12 11 1.95-7.31-4.78-13.25-12-11Z" fill="#fdf4d6"/>
  <path d="M823 237c-6.76 2-10.28 5.84-8.02 13.02 2.25 7.19-8.09 9.82-7.98 15.98 6.35-1.19 8.89-9.37 16-10 7.18-2.24 15.6-.98 18-10 .63-7.04-5.22-11.94-12-11-2.06.64-3.95 1.4-6 2Z" fill="#f87d1f"/>
  <path d="M823 256c-7.11.63-9.65 8.81-16 10-.11-6.16 10.23-8.79 7.98-15.98-2.26-7.18 1.26-11.02 8.02-13.02-8.07-3.53-11.4 7.61-9.02 13.98 2.37 6.36-12.87 10.2-6.98 17.02 6.33-2.42 9.88-9.14 16-12Z" fill="#fdeac6"/>
  <path d="M359 256c-2.24 7.47 0 19.15 0 27 0 11.67 2 21.36 4.67 32.33 2.68 10.97 3.77 19.45 16.33 20.67-8.2-14.64-6.56-37.21-8-53-1.44-15.79 10.33-34.08 27-33-3.48-3.44-15.55-5.01-9-12-7.9 6.16-26.26 7.86-31 18Z" fill="#db927c"/>
  <path d="M768 256c-4.3 5.62-4.39 6.9-12 8-7.61 1.1-9.71-2.26-15-6-1.46-.7-7.3-1.34-8-2 2.66 28.39 9.67 53.73 0 82 5.42-1.83 1.09 9.8 3.78 11.22 2.69 1.42 5.53 6.02 9.22 3.78 1.41 6.71-9.03 7.27-6 13-1.81-.14-4.08.44-5 2 .23.16 0 1 0 1 3.56 9.87 12.23 14.69 14.22 25.78 1.99 11.08 1.78 25.25 1.78 37.22 0 6.58.59 13.46 0 20 3.14 7.67 17.19 1.98 20 9 .39-1.57-.94-4.22 1-5 4.26-6.28 11.01-8.64 18-11-.3-1.25-1.83-1.71-2-3-.56-2.11-.67-3.82-1-6-2.79-9.91-2.6-17 9-22 2.04-1.69 4.97-.29 7-2 .02-4.76-3.68-8.36-6-12-1.05-1.64-2.3-1.35-2-4 .32-2.83 5.62-3.76 5-7h-3c-.3.25-1 0-1 0-5.9 6.16-8.7 1.14-15 2-7.43 1.01-18.35-1.1-20-11-.32-1.95-.32-5.05 0-7 .92-5.52 7.12-8.47 8-14-4.21.17-5.38 6.87-10 6 5.02-10.08 3.84-20.3-4.25-27.75-8.09-7.45-7.02-21.36-2.45-29.95 4.57-8.58 12.57-12.71 16.68-21.33 4.1-8.61 4.76-21.24 9.02-29.97-2.53-6.13-6.83-3.17-10 0Z" fill="#f97c0e"/>
  <path d="M612 256c-.78-.15-2.7-.96-3-1-5.21 1.51-10.98 3.66-15 7 5.98-.48 12.39-5.87 18-6Z" fill="#a19d96"/>
  <path d="M741 258c5.29 3.74 7.39 7.1 15 6 7.61-1.1 7.7-2.38 12-8-9.5 9.5-15.92 7.36-27 2Z" fill="#fde9c1"/>
  <path d="M761 373c2.63-5.02 5.23-5.02 8.69-10.3 3.47-5.29-4.91-4.49-7.69-.7 4.46-11.79.74-18.67-7.69-26.31-8.44-7.63-3.15-21.14.39-28.99 3.53-7.85 15.52-13.37 16.31-21.69.79-8.32 9.83-22.14 6.99-29.01-4.26 8.73-4.92 21.36-9.02 29.97-4.11 8.62-12.11 12.75-16.68 21.33-4.57 8.59-5.64 22.5 2.45 29.95 8.09 7.45 9.27 17.67 4.25 27.75 4.62.87 5.79-5.83 10-6-.88 5.53-7.08 8.48-8 14Z" fill="#fde7c2"/>
  <path d="M245 258c-7.33-2.21-13.34 10.05-5 13 8.34 2.95 12.86-10.63 5-13Z" fill="#fde0b7"/>
  <path d="M245 259c-6.26-2.05-11.57 7.96-5 11s11.47-8.88 5-11Z" fill="#f57d1f"/>
  <path d="M592 307c18.52-1.02 24.39-32.6 7-42 1.08-.25 1.6-2.71 2-3-1.26 1.25-4.53.47-4 3 3.49 1.9 5.48 5.56 7 9-6.72 1.21-6.08 11.2 1 11-.29 9.02-4.63 17.77-13 22Z" fill="#f0efec"/>
  <path d="M273 274c5.14-4.5 12.66-2.08 11 5-1.66 7.08-6.02 11.25 0 17-4.05-6.97-.03-11.91.99-18.99 1.02-7.08-8.85-9.44-11.99-3.01Z" fill="#fef6d4"/>
  <path d="M273 274s.07.51 0 1c-.75 4.98 3.19 7.85 3 13-.15 4.11-1.96 9.32-7 6 6.14 5.83 8.32-4.29 9-9 4.42 2.86-.6 11.14 6 13 0-.5-.23-1.84 0-2-6.02-5.75-1.66-9.92 0-17s-5.86-9.5-11-5Z" fill="#f9b648"/>
  <path d="M276 288c.19-5.15-3.75-8.02-3-13-3.2 4.07 2.79 8.97 3 13Z" fill="#fdf5d3"/>
  <path d="M427 276c-7.15-2.06-11.47 8.77-4.67 11.67 6.79 2.89 11.34-9.75 4.67-11.67Z" fill="#f1f2f3"/>
  <path d="M219 280c-4.99-1.26-9.71 1.81-7.92 7.92 1.8 6.1 7.66 1.56 11.92 4.08s11.65-5.55 6.67-6.67c-4.98-1.13-6.65-4.31-10.67-5.33Z" fill="#fcefba"/>
  <path d="M219 281c-3.61-1.04-8.97 1.79-6.75 6.75 2.22 4.96 7 .94 10.75 3.25s10.15-4.82 5-5c-5.15-.19-5.42-3.97-9-5Z" fill="#f7b22d"/>
  <path d="M755 288c.23-7.41-6.77.23 0 0Z" fill="#fba50b"/>
  <path d="M269 294c-2.99-2.84-5.49-7.36-8.22-1.22-2.73 6.13 1.37 6.9 2.91 11.53 1.55 4.62 3.54 8.14 1.24 12.62-2.31 4.47.17 8.71 1.07 13.07 1.04 5.04.7 10.05-2 15-3.96 1.08-4.35-3.79-7-5-.41-.19-1.57.17-2 0-1.57 5.37 6.91 7.72 6 14-.92 6.29-1.1 9.31-7.08 12.92-5.98 3.61-11.32 1.74-17.92 3.08-5.67 1.97-8.49 5.55-10 11-.32 4.49 1.76 8.06 5 11 7.39 5.72 9.95 17.35 1 24-2.28.25-3.9-2.8-6-1 4.68 3.85 10.7 9.08 5.75 14.75-4.95 5.66-9.8 5.99-12.75 12.25-2.68-1.58-4.29-5.11-8-4 5.15 4.92 6.86 14.62-2 17v6c-.03 4.24.92 6.37-5 7 9.69.49 7.56 10.79 13 16 2.41 3.24 10.76 12.97 10 17 5.64-4.42 13.72-7.9 19.25-12.75 5.53-4.85 13.48-8.38 18.67-13.33 5.2-4.94 15.23-5.95 19.08-11.92 2.212-2.147 1.243-11.522 1-15 0-3.95-.35-8.07 0-12-.2-.64-1.74-1.75-1-3-4.18-.64-5.07 10.61-9.68 7.66-4.61-2.94-3.46-10.61-2.32-14.66-2.87-1.13-7.12-2.97-8-6-1.69 4.79-9.15 5.33-13.25 1.25-4.09-4.09-4.01-10.55 1.25-13.25 3.93-3.36 6.75-5.16 12.23-5.77 5.47-.61 1.85-13.11 6.8-12.2 4.95.9 1.91 12.91 10.97 7.97-4.37-7.43-2.17-12.13-10.25-18.75-8.08-6.63.61-13.06 5-4 4.39 9.05 4.25 11.81 9.25 19.75 6.37 1.7 9.44-5.68 15-6-11.76-19.2-15.48-41.71-17-64-.61-8.91 0-18.07 0-27-6.6-1.86-1.58-10.14-6-13-.68 4.71-2.86 14.83-9 9Z" fill="#fa7c09"/>
  <path d="M753 292c-3.42-.84-5.38 4.82-1.7 5.64 3.68.83 4.5-4.96 1.7-5.64Z" fill="#fcb815"/>
  <path d="M805 308c-.25.25-1 0-1 0-1.09 1.06-2.53.88-3-1-.31-1.78 2.92-4.16 4-4-2.21-2.32-2.99-9.64 1-11-6.79 1.71-.72 11.24-6 12-2.1 3.8 3.74 9.01 5 4Z" fill="#fdf0ca"/>
  <path d="M805 303c.13.13 2.05 2.02 2 2 4.78-1.4 11.14-4.86 5-11-2.13-1.05-3.23-2.62-6-2-3.99 1.36-3.21 8.68-1 11Z" fill="#f7872e"/>
  <path d="M812 294c6.14 6.14-.22 9.6-5 11-1.26.37-2.21.11-2 2 3-2.43 7.94.19 9.22-4.78 1.29-4.97.78-6.74-2.22-8.22Z" fill="#fdeccd"/>
  <path d="M284 298c0 8.93-.61 18.09 0 27 .25-8.78 1-19.42 1-29 0 0-.66-.23-1 0-.23.16 0 1.5 0 2Z" fill="#321003"/>
  <path d="M196 299c-7.23-2.23-8.05 9.73-2.25 11.2 5.81 1.47 7.15-9.68 2.25-11.2Z" fill="#fce7bf"/>
  <path d="M196 300c-5.36-2.33-7.09 6.72-2.68 8.66 4.42 1.94 6.19-7.13 2.68-8.66Z" fill="#f4892a"/>
  <path d="M717 306c-2.61 44.04-32.71 78.46-59 112 34.4-30.55 62-70.7 62-118-.27 1.52-2.68 4.44-3 6Z" fill="#6b7281"/>
  <path d="M801 307c-.07-.27 2.07-2.76 3-2v3s.75.25 1 0c0 0 .06-.51 0-1-.21-1.89.74-1.63 2-2 .05.02-1.87-1.87-2-2-1.08-.16-4.31 2.22-4 4Z" fill="#f8ca81"/>
  <path d="M801 307c.47 1.88 1.91 2.06 3 1v-3c-.93-.76-3.07 1.73-3 2Z" fill="#e18b24"/>
  <path d="M204 307c-1.12-1.12-4.3 1.05-2.68 2.66 1.62 1.61 3.89-1.45 2.68-2.66Z" fill="#e9b275"/>
  <path d="M366 348c.25.28 0 1 0 1 21.4 5.97 50.71 12.08 72.23 3.23 21.52-8.85 41.8-17.75 65.77-18.23 1.33-.61 2.77-3.83 1-5-11.94 1.44-23.92 2.92-34.99 7.01-11.08 4.08-20.26 5.64-30.99 11.01-10.72 5.38-23.95 4.68-36.02 5.98-12.07 1.3-25.27-6.84-37-5Z" fill="#e2e3e6"/>
  <path d="M504 334c2.44-.05 4.22-.08 7 0 31.17.28 56.03 16.48 83.78 28.22 27.74 11.75 61.04-1.2 84.22-17.22-25.03 12.86-59.49 14.91-86.78 8.78-27.29-6.13-48.13-23.26-76.22-24.78-3.66-.2-7.34.15-11 0 1.77 1.17.33 4.39-1 5Z" fill="#68707f"/>
  <path d="M257 340c2.65 1.21 3.04 6.08 7 5 2.7-4.95 3.04-9.96 2-15 1.11 4.95-1.73 8.75-3 13-3.64-.33-3.41-6.23-6-3Z" fill="#fcdfb1"/>
  <path d="M504 334c-23.97.48-44.25 9.38-65.77 18.23-21.52 8.85-50.83 2.74-72.23-3.23-4.41-1.23-8.14-3.03-12-5-2.52-1.22-5.88-2.7-9-3 6.77 12.46 19.33 21.54 29 32-2.84-.92-5.44-2.31-8-4 20.67 46.34 67.03 76.78 113 93-15.62-12.98-30.5-29.5-40-47 9.47.9 18.23 4.42 28 4-1.08-11.84.74-24.86 2.07-35.93 1.33-11.06 5.94-17.69 16.24-20.76 10.29-3.08 16.79-11.1 27.69-5.31.55-7.98-1.64-15.27-2-23-2.78-.08-4.56-.05-7 0Z" fill="#353c4b"/>
  <path d="M238 336c-3.83.1-8.26 7.43-2.67 9.67 5.58 2.23 5.52-6.68 2.67-9.67Z" fill="#f5b84a"/>
  <path d="M201 347c-.19.09 0 1 0 1 4.63.48 2.26-6.68 4-9 1.26.08.56 2.06 2 2 .08-1.45-.07-2.86-1-4-4.7 1.55-1.04 8.19-5 10Z" fill="#f7c993"/>
  <path d="M726 358c.32 3.53 6.24 8.07 9 10 .92-1.56 3.19-2.14 5-2-3.03-5.73 7.41-6.29 6-13-3.69 2.24-6.53-2.36-9.22-3.78-2.69-1.42 1.64-13.05-3.78-11.22-2.1 6.15-6.39 13.56-7 20Z" fill="#f7ad0e"/>
  <path d="M201 348c-1.8.37-3.35 1.1-5 2 .3 1.25 1.83 1.71 2 3 2.1.15 3.73 1.59 6 1 1.54 2.49 1.62 6.63 3 9 .82.71 1.92 1.04 3 1-.64-6.27-.76-13.48 7-14-.52-4.19-9.46.2-9-6-.46-1.1-.7-1.88-1-3-1.44.06-.74-1.92-2-2-1.74 2.32.63 9.48-4 9Z" fill="#f38226"/>
  <path d="M236 370c6.6-1.34 11.94.53 17.92-3.08 5.98-3.61 6.16-6.63 7.08-12.92.91-6.28-7.57-8.63-6-14-3.5-.61.69 5.63 3.08 8.92s1.1 9.71.92 14.08c-6.43 5.7-15.74 4.48-23 7Z" fill="#fce1b9"/>
  <path d="M279 343c-3.1-2.67-11.05-2.48-9.92 2.92 1.14 5.39 11.39 1.27 9.92-2.92Z" fill="#fba805"/>
  <path d="M207 363c.17 1.29 1.7 1.75 2 3 7.2-2.18-2.58-11.38 4.92-13.08 7.51-1.69 1.77-9.72-3.92-5.92-.17-1.24-1.5-2.15-2-3-.46 6.2 8.48 1.81 9 6-7.76.52-7.64 7.73-7 14-1.08.04-2.18-.29-3-1Z" fill="#fde4b9"/>
  <path d="M366 349s.25-.72 0-1c-2.3-2.6-8.69-2.9-12-4 3.86 1.97 7.59 3.77 12 5Z" fill="#6f7781"/>
  <path d="M810 368c7.57 3.18 16.17-11.82 23.77-6.77 7.6 5.05 16.34-2.57 12.53-11.53-3.8-8.97-15.36-.73-20.05 3.55-4.7 4.28-16.28 6.99-16.25 14.75Z" fill="#fdf6cc"/>
  <path d="M198 353c-.17-1.29-1.7-1.75-2-3 1.65-.9 3.2-1.63 5-2 0 0-.19-.91 0-1-2.84-.38-4.82 1.59-7 3 .54 1.69 2.52 2.37 4 3Z" fill="#fceec8"/>
  <path d="M830 353c6.3-3.55 20.88-7.76 14 6 2.36-3.34 3.29-9.98-2-12-5.29-2.02-8.75 3.51-12 6Z" fill="#f4d071"/>
  <path d="M830 353c-6.3 4.05-15.38 7.16-19 14 6.06-1.76 10.57-4.35 16.78-6.22 6.2-1.87 12.22 3.88 16.22-1.78 6.88-13.76-7.7-9.55-14-6Z" fill="#f6b028"/>
  <path d="M272 360c10.49-.99 12.4-9.98 0-9v9Z" fill="#fba204"/>
  <path d="M411 367c-16.53-1.77-33.67-5.07-50-9 14.1 11.88 32.4 15.05 50 9Z" fill="#686f80"/>
  <path d="M735 369s.23-.84 0-1c-2.76-1.93-8.68-6.47-9-10-.26 2.73 5.09 9.37 9 11Z" fill="#be943a"/>
  <path d="M800 368c.04-2.25-.89-8.88 3-9 3.82-.12 3.07 3.72 2 6-.2.44-1.71 2.9-2 3 3.89-1 6.69-8.26 2.01-9.99-4.68-1.74-8.68 8.18-5.01 9.99Z" fill="#fef4d9"/>
  <path d="M800 368c.38.19 2.6.14 3 0 .29-.1 1.8-2.56 2-3-.73 1.06-2.76 2-4 2-.3-2.99-.11-5.83 2-8-3.89.12-2.96 6.75-3 9Z" fill="#f4c283"/>
  <path d="M805 365c1.07-2.28 1.82-6.12-2-6-2.11 2.17-2.3 5.01-2 8 1.24 0 3.27-.94 4-2Z" fill="#ef8c2b"/>
  <path d="M776 362c-7.5 3.62 4.05 7.23 0 0Z" fill="#ec9954"/>
  <path d="M202 367c-8.54-1.3.49 8.46 0 0Z" fill="#efc08d"/>
  <path d="M252 408c-6.58 7.11.07 15.89 9 15 .45-2.12-4.01-4.31-1-6 5.07 2.77 10.89 10.97 16 4 1.7-1.21 3.39-3.61 6-3 .53-1.28-.97-1.86-1-3-.45-.15-1.53.11-2 0-1.9-.45-3.79-1.65-6-1-.79-4.68 4.5-5.64 8-5 4.29 0 6.32-.2 8 4 .99 2.48 1.32 5.18 0 8-4.18-.02-2.75-.47-7-2 2.58 3.31-1.65 6.18-5 5 2.74 2.87 10.86-3.24 12 1 4.82-7.79 5.67-11.22 12.75-18.25 7.09-7.03 4.37-9.4-.75-17.75-5.56.32-8.63 7.7-15 6-5-7.94-4.86-10.7-9.25-19.75-4.39-9.06-13.08-2.63-5 4 8.08 6.62 5.88 11.32 10.25 18.75-9.06 4.94-6.02-7.07-10.97-7.97-4.95-.91-1.33 11.59-6.8 12.2-5.48.61-8.3 2.41-12.23 5.77Z" fill="#f9ad0e"/>
  <path d="M163 380c5.27-7.24 17.38-1.23 22.25 3.75 4.86 4.99 12.83 14.39 20 8.5 7.16-5.9 16.2 7.52 16.06 13.45-.15 5.92-.74 21.1-9.31 21.3-8.57.19-10.03 14.11-16 16 1.31-4.66.6-7.17-5-6 .04 0 0 1 0 1h5c-2.89 10.2 7.23 3.17 8.23-3.77 1-6.94 14.83-4.4 15.44-10.56.61-6.16 3.34-15.89 1.58-20.92-1.75-5.03-6.68-14.66-13.24-12.74-6.56 1.92-12.85 5.77-17.01-3.01 7.87-1.32.82-9.65-3-3-5.14-5.33-19.54-13.6-25-4Z" fill="#fce2b8"/>
  <path d="M726 414c-1.76 11.51-6.8 18.8-15 27-25.14 28.6-60.88 41.65-90 64 36.95-19.92 77.63-34.75 107-68 1.47 20.58-10.89 37.45-24 52 17.78-11.67 26.51-29.93 27.02-50.98.52-21.04 6.12-47.57-14.02-62.02-4.54 4.99 2.23 10.12 7.08 15.92 4.86 5.8 3.02 14.88 1.92 22.08Z" fill="#6b7383"/>
  <path d="M163 380c-3.07 5.39-2.51 10.66 2 15 3.4 2.29 8.38 2.59 12 5 3.66 2.43 8.23 6.29 7 10-.63 1.92-3.07 3.5-4 5-2.25 4.92-2.05 7.08 0 12 3.18 5.18 3.68 2.98 1 7-.28 1.02-1.39 1.75-1 3h11c5.6-1.17 6.31 1.34 5 6 5.97-1.89 7.43-15.81 16-16 8.57-.2 9.16-15.38 9.31-21.3.14-5.93-8.9-19.35-16.06-13.45-7.17 5.89-15.14-3.51-20-8.5-4.87-4.98-16.98-10.99-22.25-3.75Z" fill="#fb7910"/>
  <path d="M781 391c-6.74-.04-18.19-3.27-20-11 1.65 9.9 12.57 12.01 20 11Z" fill="#fcdeae"/>
  <path d="M225 386c.47 2.04 4.36 4.73 6 6-3.24-2.94-5.32-6.51-5-11-.42 1.52-1.21 2.8-1 5Z" fill="#f1b87d"/>
  <path d="M211 473c-2.12-3.68-14.19-6.09-2-7v-11c8.86-2.38 7.15-12.08 2-17 3.71-1.11 5.32 2.42 8 4 2.95-6.26 7.8-6.59 12.75-12.25 4.95-5.67-1.07-10.9-5.75-14.75 2.1-1.8 3.72 1.25 6 1 8.95-6.65 6.39-18.28-1-24-1.64-1.27-5.53-3.96-6-6 2.09 6.52 9.62 8.25 11.07 15.93 1.46 7.67-2.83 13.85-11.07 11.07-1.27 7.26 10.73 8.47 5.77 14.77-4.96 6.3-7.23 6.5-12.77 11.23-2.48-2.37-5.35-3.78-9-3 1.78 5.46 9.91 15.47-1 17v12c-3.32-.47-8.24 1.4-5.75 4.75 2.5 3.34 6.36.67 8.75 3.25Z" fill="#fce7bf"/>
  <path d="M796 389s.7.25 1 0c1.1-.91 2.3-1.26 4-1 .41 3.63-3.57 6.03-6 8-.3 2.65.95 2.36 2 4-2.22-5.93 6.41-7.39 5-13-1.96.17-5.41-.74-6 2Z" fill="#feebc4"/>
  <path d="M797 389h3c.62 3.24-4.68 4.17-5 7 2.43-1.97 6.41-4.37 6-8-1.7-.26-2.9.09-4 1Z" fill="#e9a55e"/>
  <path d="M180 415c.93-1.5 3.37-3.08 4-5 .32-3.12-4.66-8.17-7-10-3.62-2.41-8.6-2.71-12-5 7.4 7.12 21.18 6.49 15 20Z" fill="#fdeecf"/>
  <path d="M184 410c1.23-3.71-3.34-7.57-7-10 2.34 1.83 7.32 6.88 7 10Z" fill="#fbc68b"/>
  <path d="M585 496c.15-.01.67 1.01 1 1 41.98-20.12 94.14-41.22 110-90-24.6 41.35-69.39 67.73-111 89Z" fill="#6d7383"/>
  <path d="M285 436c.36-4.07 1.87-7.56 4-11-1.14-4.24-9.26 1.87-12-1-.66-.69-1.16-2.04-1-3-5.11 6.97-10.93-1.23-16-4-3.01 1.69 1.45 3.88 1 6-8.93.89-15.58-7.89-9-15-5.26 2.7-5.34 9.16-1.25 13.25 4.1 4.08 11.56 3.54 13.25-1.25.88 3.03 5.13 4.87 8 6-1.14 4.05-2.29 11.72 2.32 14.66 4.61 2.95 5.5-8.3 9.68-7.66-.74 1.25.8 2.36 1 3Z" fill="#f89a08"/>
  <path d="M827 408c-3.36-2.02-7.19 3.33-3.67 5.67 3.52 2.34 6.79-3.8 3.67-5.67Z" fill="#f19c5f"/>
  <path d="M279 415c-1.68-1.21-3.13-2.25-5-3 1.73-2.6 5.31-1.08 7-3-3.5-.64-8.79.32-8 5 2.21-.65 4.1.55 6 1Z" fill="#fcdc7d"/>
  <path d="M279 415c.47.11 1.55-.15 2 0 2.56.88 5.12 1.37 8 1v-3c-1.68-4.2-3.71-4-8-4-1.69 1.92-5.27.4-7 3 1.87.75 3.32 1.79 5 3Z" fill="#fcf8de"/>
  <path d="M320 413c-1.76 1.81-3.86 9.13-8 11-1.84 3.26-4.41 8.69-7 11-1.34 17.67 3.67 31.17 16 44-1.23-1.6-2.13-3.62-4-5 10.49 5.34 21 10.07 32.23 13.77 11.23 3.7 26.11 4.36 34.77 11.23 8.63-.18 17.19 6.7 25 5-6.75-1.88-12.44-6.45-18.93-9.07-6.48-2.63-13.8-4.75-19.99-8.01-6.19-3.25-12.74-6.01-18.85-9.15-6.11-3.14-11.47-7.19-17-11-5.53-3.81-9.91-9.84-12.31-15.69-2.39-5.86-3.71-19.33-.24-24.4 3.47-5.08 5.89-18.78-1.68-13.68Z" fill="#666e7f"/>
  <path d="M281 415c.03 1.14 1.53 1.72 1 3-2.61-.61-4.3 1.79-6 3-.16.96.34 2.31 1 3 3.35 1.18 7.58-1.69 5-5 4.25 1.53 2.82 1.98 7 2 1.32-2.82.99-5.52 0-8v3c-2.88.37-5.44-.12-8-1Z" fill="#f9cf64"/>
  <path d="M787 436c-1.46-9.55-.6-16.24 9-22-11.6 5-11.79 12.09-9 22Z" fill="#fde3b9"/>
  <path d="M821 417c.54 3.53-2.95 5.16-6 5-.71-3.26 2.58-5 5-6-4.59-1.55-6.79 5.26-8 9 2.79-1.22 12.48-3.41 9-8Z" fill="#faead0"/>
  <path d="M821 417c-.22-.29-.69-.8-1-1-2.42 1-5.71 2.74-5 6 3.05.16 6.54-1.47 6-5Z" fill="#f29c53"/>
  <path d="M304 435c.22-.25 1 0 1 0 2.59-2.31 5.16-7.74 7-11 0 0-.66-.23-1 0-3.38 2.31-5.28 7.32-7 11Z" fill="#aaafb9"/>
  <path d="M356 460c-.7-1.97-1.5-6.07-3-9-2.18-4.26-4.61-8.47-6-13 13.42 17.69 32.01 30.57 51 41 22 12.13 47.67 18.43 71 26 23.56 4.74 46.81 17.37 70 19-15.55-5.96-33.79-8.95-48.77-16.23-14.98-7.28-32.21-8.82-46.23-17.77-12.16-4.32-24.98-8.72-36.69-14.31-11.71-5.58-22.1-12.21-33-18.99-10.91-6.79-16.37-18.83-25.31-26.7-3.25-.54-5.54-3.86-9-4 .49 13.33 8.63 23.78 16 34Z" fill="#666e7f"/>
  <path d="M187 438c-5.37.03-8.85.27-6-4 2.68-4.02 2.18-1.82-1-7-1.89 1.45 2.78 3.07 3 5-2.77.36-7.08 3.14-4.22 6.22 2.86 3.08 5.93.3 8.22-.22Z" fill="#fdf4d6"/>
  <path d="M444 490c-31.24-19.95-61.5-43.25-95-60 8.94 7.87 14.4 19.91 25.31 26.7 10.9 6.78 21.29 13.41 33 18.99 11.71 5.59 24.53 9.99 36.69 14.31Z" fill="#363e4d"/>
  <path d="M750 452c0 .05 1 0 1 0 .59-6.54 0-13.42 0-20-.57 5.86-1.6 13.36-1 20Z" fill="#573204"/>
  <path d="M187 438c.86 0 3.29.43 4 0 0 0 .04-1 0-1h-11c-.39-1.25.72-1.98 1-3-2.85 4.27.63 4.03 6 4Z" fill="#f4ae6b"/>
  <path d="M301 450c0 12.59 9.12 27.58 21 33 1.13.52 1.79-.05 2 0-1.14-1.04-1.97-2.93-3-4-12.33-12.83-17.34-26.33-16-44 0 0-.78-.25-1 0-2.43 5.2-3 9.04-3 15Z" fill="#e8eaed"/>
  <path d="M826 439c-5.45-6.42-18.37-1.69-14.3 7.3 4.07 9 13.99-1.18 14.3-7.3Z" fill="#fee9c6"/>
  <path d="M822 437c-7.72-3.87-13.46 7.76-7.67 11.67 5.79 3.9 13.37-8.81 7.67-11.67Z" fill="#f58125"/>
  <path d="M225 439c-5.54 2.13 1.86 8.2 0 0Z" fill="#fcc336"/>
  <path d="M772 456c-2.98 10.56 9.1 5.52 15.22 8.78 6.12 3.26 9.97-2.84 17.01-4.55 7.04-1.71 1.3 8.32-3.98 10.02-5.28 1.69-8.47 10.22-10.25 14.75-.17.43 0 1 0 1h1c2.25-2.51 6.51-13.33 10.25-14.61 3.73-1.28 12.57-8.89 6.75-12.39s-12.33 8.73-17.93 4.93c-5.6-3.81-16.74 2.41-17.07-7.93 5.23-4.49 10.79-8.57 18-10 .97-2.25-2.44-2.76-3-4 .17 1.29 1.7 1.75 2 3-6.99 2.36-13.74 4.72-18 11Z" fill="#fcecba"/>
  <path d="M337 507c7.27.4 14.45-5.27 22-2-10.03-5.11-20.07-14.88-30-18-3.09-.81-4.63-2.31-7-4-11.88-5.42-21-20.41-21-33-1.34 13.89-2.3 27.45 8.25 37.75S324.97 500.85 337 507Z" fill="#656d7e"/>
  <path d="M356 460c15.43 17.31 32.87 29.74 54.92 38.08 22.06 8.33 51.3 15.81 75.08 14.92-6.74.24-13.88-5.55-17-8-23.33-7.57-49-13.87-71-26 4.61 9.68 20.91 8.82 22 19-25.32-9.05-50.52-24.39-67-47 1.5 2.93 2.3 7.03 3 9Z" fill="#383f4e"/>
  <path d="M779 485c2.375 1.232 5.658 1.043 10.48 1.049 1.78-4.53 5.49-14.109 10.77-15.799 5.28-1.7 11.02-11.73 3.98-10.02-7.04 1.71-10.89 7.81-17.01 4.55-6.12-3.26-18.2 1.78-15.22-8.78-1.94.78-.61 3.43-1 5-2.81-7.02-16.86-1.33-20-9 0 0-1 .05-1 0-1.61 6.78 9.4 12.75 13.75 17.25 4.36 4.5 9.76 13.51 15.25 15.75Z" fill="#f4a814"/>
  <path d="M249 454c.04 8.94 9.71-1.38 0 0Z" fill="#fcb50c"/>
  <path d="M235 459c-8.53-.45 1.41 8.51 0 0Z" fill="#fdb712"/>
  <path d="M189 465c.23-8.28-8.25.3 0 0Z" fill="#efba8a"/>
  <path d="M211 473c1.36 2.37.14 4.65 1 7 .62 1.41 4 2.85 5 4-5.44-5.21-3.31-15.51-13-16 5.92-.63 4.97-2.76 5-7v5c-12.19.91-.12 3.32 2 7Z" fill="#f5be7b"/>
  <path d="M826 471c-.01.06-1 0-1 0-3.09 9.45-13.89 4.74-13-4 1.54.37 2.4-1.43 4-1 1.49-.58 2.89-1.34 5-1-7.76-2.8-11.95 3.42-7.75 9.75 4.19 6.34 12.73 2.35 12.75-3.75Z" fill="#fde8be"/>
  <path d="M816 466c4.2-.82 8.86.37 9 5 0 0 .99.06 1 0 .4-3.26-2.31-5.03-5-6-2.11-.34-3.51.42-5 1Z" fill="#f1ae66"/>
  <path d="M825 471c-.14-4.63-4.8-5.82-9-5-1.6-.43-2.46 1.37-4 1-.89 8.74 9.91 13.45 13 4Z" fill="#f77c18"/>
  <path d="M232 470c-2.13-1.08-5.97 4.02-2.68 5.66 3.29 1.64 5.36-4.3 2.68-5.66Z" fill="#fca60c"/>
  <path d="M742 481c4.52 3.23 8.25 7.65 13 10 2.97.12 5.05 2.87 8 3-8.54-8.82-17.51-18.71-29-23-3.23 5.27 4.76 7.68 8 10Z" fill="#5e6675"/>
  <path d="M165 488c3.46-9.5 16.66-16.03 25.08-10.08 8.42 5.96 1.99 21.31-6.08 25.08 8.93-2.21 13.76-16.66 10-25-9.53-8.33-26.68-.89-29 10Z" fill="#fde9c4"/>
  <path d="M321 479c1.03 1.07 1.86 2.96 3 4 1.17 1.07 3.84 3.41 5 4 9.93 3.12 19.97 12.89 30 18-7.55-3.27-14.73 2.4-22 2 21.56 11.15 48.94 15.58 73 16-15.09-8.9-30.37-17.26-45-27 5.51-1.44 13 1.63 19 3-8.66-6.87-23.54-7.53-34.77-11.23-11.23-3.7-21.74-8.43-32.23-13.77 1.87 1.38 2.77 3.4 4 5Z" fill="#363d4d"/>
  <path d="M165 488c-2.76 12.98 6.9 18.42 19 15 8.07-3.77 14.5-19.12 6.08-25.08-8.42-5.95-21.62.58-25.08 10.08Z" fill="#fa7c1b"/>
  <path d="M804 477c-3.22-.57-4.51 4.97-1.03 5.97 3.48 1 3.74-5.49 1.03-5.97Z" fill="#f5d6ba"/>
  <path d="M802 482c6.33-.55-.92-6.98 0 0Z" fill="#d18147"/>
  <path d="M755 491c-4.75-2.35-8.48-6.77-13-10-2.77 2.51-7.02-.86-10-2-.84 5.88 6.73 4.96 10.31 7.7 3.57 2.73 8.55 3.18 12.69 4.3Z" fill="#28303d"/>
  <path d="M225 503c.47-.45 1.49-1.6 2-2 .76-4.03-7.59-13.76-10-17-1-1.15-4.38-2.59-5-4 2.53 6.93 15.28 14.45 13 23Z" fill="#fbe4b4"/>
  <path d="M230 524c-.23.34 0 1 0 1 6.46-3.64 14.2-8.78 20.08-12.92 5.89-4.14 15.46-8.49 20.62-12.38 5.15-3.9 20.52-6.48 21.3-12.7-.58-1.71-2.06-3.11-2-5-10.07 5.11-23.18 11.45-31.75 19.25-8.58 7.79-21.81 13.32-28.25 22.75Z" fill="#eaebed"/>
  <path d="M329 487c-1.16-.59-3.83-2.93-5-4-.21-.05-.87.52-2 0 2.37 1.69 3.91 3.19 7 4Z" fill="#a1a9b7"/>
  <path d="M586 497c-.33.01-.85-1.01-1-1-2.95 1.73-6.57 2.73-9 5 3.79.1 6.99-2.62 10-4Z" fill="#434b55"/>
  <path d="M814 555c8.65-.84 18.67-.81 28-1 .74-.01 9.54-.1 6-2-1.04-.4-3.16-.73-4-1-5.12-.9-11.69 1.49-16-1 3.12-1.46 6.7-1.15 10-2 3.45-.25 6.84-.75 10-2-3.34-5.6 1.61-9.23 4-14-5.41-2.03-12.47-.32-17-4 4.08-1.68 8.94-.31 13-2-1.21-3.89-.53-5.04 3-6 .42-2.62-2.42-2.97-4-4-2.06-.8-4.73-.77-7-1-2.48-1.45 2.15-3.11 0-4-9.74.64-20.34-.86-30 0s-21.75-1.6-31 0-22.19-3.88-30 1c-.93.82-1.14 5.09-4 4v-5c-2.87-2.52-6.47 6.94-8 1-.32-1.24.19-2.73 0-4-1.25-1.26-.47-4.53-3-4-3.36 16.95-6.45 33.27-11.07 49.93-4.62 16.65-8.04 31.37-12.6 48.4-4.56 17.03 18.08 25.1 28.59 14.59 10.5-10.51 38.87-6.99 43.08 8.08 4.21 15.07-11.5 31.7-25.93 35.07-14.42 3.37-34.32.76-46.07-10.07-6.39 8.48-16.18 13.45-26 16 1.78 4.06 9.87.14 10 6-4.09 1.72-7.22 5.54-10 9 10.43 18.33 30.55 29.87 51.78 26.78s43.82-6.75 61.52-17.48c17.71-10.72 31.03-20.43 40.4-38.61 9.36-18.17 4.89-45.29-12.47-57.92-17.36-12.63-39.05-17.26-60.23-18.77 1.18-9.4 4.21-22 16-20s21.39 0 33 0Z" fill="#fa7606"/>
  <path d="M225 530c.05.02.7-.78 1-1 1.31-.96 3.21-2.26 4-4 0 0-.23-.66 0-1-1.21.99-7.77 4.58-5 6Z" fill="#999da9"/>
  <path d="M660 694c1.63-3.44 1.01 9.86 1 10 .3 2.36-1.03 6.02 2 7 3.99-4.59 6.09-10.49 7-16 .17 3.08 1.6 5.74 1 9 6.9 3.19 6.98-5.36 11-4-8.18-48.7 1.65-99.11 0-148-.48-2.61-3.5-5.23-2-9-5.86-.59-4.76 7.38-8 10-2.26-4.05 1.19-8.42 0-13-7.58 4.21-15.38 7.96-24.33 8.67-8.95.71-17.44 5.59-24.67 3.33-20.43 49.06-47.46 95.52-64 146 5.7-2.06 14.79 3.64 17.07-3.93 2.29-7.56 5.62-9.85 7.93-17.07.06 10.35-6.11 22.22-9 33 9.93-.86 10.44-13.76 17-19-1.02 3.91-2.05 9.5 0 13 3.87-9.97 8.02-21.19 20.33-20.67 12.31.52 23.48-4.4 35.67-4.33-.22 6.15.1 13.23 1 19s-2.22 13.79 2 17c1.43-4.58 3.81-10.63 9-12 .87-2.59-1.16-6.55 0-9Z" fill="#fafafa"/>
  <path d="M624 649c4.41 0 9.34.65 13 1h9v-46c-.36-3.77-1.01-10.22-2-14-9.75 19.57-19.56 39.19-29 59h9Z" fill="#020913"/>
  <path d="M466 700c.18-2.77-2.84-8.16 0-11 2.41-2.13 2.84 5.01 6 4 1.73-12.55 4.52-25.76 7.01-37.99s4.44-25.93 7.21-37.79c2.77-11.85 7.05-24.69 8.8-36.2 1.76-11.51 10.14-28.59-5.02-31.02-.29 4.12-2.03 7.83-2 12-4.08-.69-1.08-6.96-2-10-6.79.29-10.15-.47-15.25-5.75s-5.43 5.9-6.77 10.73c-1.34 4.83-3.01 11.65-5.05 16.95-2.05 5.29-3.25 12.64-4.6 18.4-1.35 5.76-1.63 12.91-3.4 18.6-1.78 5.68-1.8 12.2-4.93 17.07-5.75-26.94-15.08-52.88-20-80-12.15 1.37-31.79-2.55-34.22 10.78-2.44 13.33-6.59 22.85-9.45 35.55-2.86 12.69-5.62 23.77-7.35 36.65-1.74 12.87-4.47 26.04-6.05 38.95-1.59 12.91-5.33 24.94-5.93 38.07 5.66-.46 11.11-1.5 17-1 1.95-5.41 2.84-11.13 3-17 4.87 5.66-.32 15.77 3 22 13.17-10.59 12.25-26.76 15.67-42.33 3.42-15.56 6.18-32.6 10.33-47.67 8.84 23.11 13.63 47.44 21 71 4.06-1.1 1.16-8.4 4-11 .98 9.5 4.65 18.97 11 26 1.95-1.84.56-5.64 2-8 5.23 4.7 11.19-.76 16 4 .17-1.3-.22-2.7 0-4Z" fill="#fafafa"/>
  <path d="M324 704c3.79-.77 8.28 1.02 12 0 5.15-3.98 3.35-2.45 8 0 9.54-52.02 15.57-105 29-156-4.05-1.69-6.53 4.59-9 0-1.37 2.54-4.12 4.75-7 5 .02-2.54-1.01-4.76-2-7-3.43 1.56-5.09 6.5-9 7 1.24-4.18-2.02-6.83-6-6-3.53 8.87-6.41 17.44-8.07 26.93-1.67 9.49-5.21 18.51-6.93 28.07-1.72 9.56-3.77 19.55-6 29-2.24 9.44-3.28 19.76-6.01 28.99-2.72 9.24-2.54 20.8-5.21 29.79-2.68 8.99-1.88 24.75 3.22 9.22 3.45 2.34 3.49 9.6 9 9-.25-2.73.63-7.02 4-7 .31.34-.38 2.82 0 3Z" fill="#f9f9f9"/>
  <path d="M183 691c.56-1.38.83-3.19 2-4-.56 2.52 1.19 6.3-1 8 .75 5.61-1.44 10.48-1 16h13c.66-5.44 2.84-10.46 3-16 2.69 5.32-.57 13.25 2 19 2.48.23 3.66-2.43 5-4 2.57-3.01 6.81-5.96 9-9 7.42-24.55 8.63-51.44 15-76 9.21 27.82 15.73 56.51 28 83 3.81-.18 1.26-5.52 2-8 2.14 3.21 5.21 7.93 11 5 1.63 2.42 1.33 5.93 3 8 1.54-1.63 1.6-4.7 2-7 3.05-.57 2.62 3.37 5 4 5.57-7.35 5.88-17.2 8.07-25.93 2.2-8.72 3.9-17.87 6.61-26.39 2.71-8.53 5.13-17.08 7.34-25.66 2.22-8.58 4.79-18.61 7.05-26.95 2.27-8.33 5.64-17.99 7-26 1.36-8 9.99-20.4.15-23.29-9.84-2.9-6.53 14.55-11.22 20.22-1.45-6.3 1-14.83 1-22-8.55 2.24-14.04-4.54-21-7-9.81 26.57-11.43 55.88-18 83-11.03-26.63-9.46-56.9-22-83-8.97 2.53-18.55 6.38-28 4-1.37 3.68-2.82 7.31-4 11-5.54-1.98 2.17-14.27-6-15-10.9 50.37-24.77 101.85-28 153 1.17-2.9 1.84-6.13 3-9Z" fill="#fafafa"/>
  <path d="M568 547h-22c-3.72 16.7-8.18 34.18-11.01 50.99-2.82 16.81-6.27 34.75-10.06 50.94-3.8 16.18-20.8 26.25-35.93 19.07 2.86 6.18-7.75 8.08-1 12-11.94 4.83 3 14.02 10 13-6.75 2.79-16.33.71-23 4 21.65 10.45 45.25 2.93 64.92-11.08 19.66-14.01 24.86-37.56 27.08-60.92 2.22-23.36 8.24-51.55 12-75-3.02-.43-4.03-3.29-7-3-2.02 6.02-3.71 12.06-6 18-2.1-5.25 1.32-12.25 2-18Z" fill="#f9f9f9"/>
</svg>
