<svg xmlns="http://www.w3.org/2000/svg" viewBox="0 0 1000 1000">
    <title>Pizza Ninjas #110</title>
    <path d="M717 919c-1.6-26.5-3.2-53.1-8.5-79.1-5.2-26.2-14.6-52.1-31.2-73.3-18.3-24.1-45.5-40.4-74.3-48.8-19.2-5.4-39.2-7.2-59-7.6-25.1.1-50.1 3.2-75.1 5.6-42.1 5.1-84.2 11.3-125.1 22.9-15.8 4.6-31.8 9.9-45.3 19.6-15.5 10.7-27 26.3-34.9 43.3-14.5 31-19 65.5-21.1 99.4-1.3 22.3-1.7 44.7-2.7 67-.3 10.7-1 21.3-1 32h480.1c.2-27-.4-54-1.9-81z"/>
    <path fill="#464B4B" d="M482.5 734.7c23.4-2.2 47-4 70.5-3.7 17.5.4 35.2 2.2 52 7.2 14.9 4.4 28.9 12 40.7 22.1 21.3 18 34 44.2 40.9 70.8 7.8 31 9.6 63.1 11.2 94.9 1 24.7 1.8 49.3 1.8 74h-64.8c-.3-30.7.9-61.7-5.3-91.9-4.5-20.5-13.1-41.2-29.5-55-3.2-3-9.4-1.5-10.4 2.9-.9 3.9 2 7.2 4.2 10.1 8 9.4 14.1 20.5 18 32.2 5.7 16.6 7.3 34.3 8.4 51.7.8 16.6 1.3 33.3 1.2 50H374.7c0-14.3-.6-28.7-.5-43 .1-19.7-.3-39.9 5.8-58.9 3.3-10.1 8.5-19.6 15.3-27.8 2.1-2.7 4.4-5.2 5.7-8.4 1.4-3.2-.7-7.3-4.1-8-2.5-.8-4.9.7-6.6 2.4-13.5 13-22.5 30.3-26.3 48.5-4.3 21.1-3.7 42.7-3.7 64 .4 10.3.3 20.7.9 31h-99.3c-.8-10.7-1.2-21.3-1.1-32-.4-37.1.1-74.5 7.3-111.1 3.3-15.8 7.9-31.6 15.9-45.7 7.2-13.1 16.9-24.9 28.8-34.1 12.8-10.1 27.9-16.6 43.4-21.4 16.7-5 33.9-8.1 51-11 25.1-4 50.2-7.3 75.3-9.8z"/>
    <path fill="#ffd400" d="M407.2 692.3c21.7-6.7 44.3-9.8 66.9-10.6 27.7-.8 55.7 1.7 82.5 9 16.5 4.6 32.8 10.9 46.8 21 10 7.3 18.9 17.2 22.1 29.4 2.7 10.4 0 21.6-6 30.4-7.1 10.6-17.9 18.2-29.1 24-16.3 8.3-34.1 13.3-52 16.5 1.7 6.4 3.6 12.7 5.4 19 8.2 2.8 16.1 8 20 16 4.1 8.2 2.5 18.3-2.7 25.6 6.5 2.2 12.7 5.9 16.4 11.8 3.4 5.2 4.3 11.8 2.6 17.8-2 7.3-7 13.3-12.8 18 1.5 6.3 3.6 12.4 4.9 18.8 1 5.2-6.5 8.5-9.5 4-2.7-5.1-3.2-11-5.1-16.4-2.6 1.4-5.3 2.6-8.1 3.8 1.3 4.6 2.7 9.2 3.9 13.8 1 2.9-.6 6.5-3.6 7.2-2.9.9-5.9-1.2-6.7-3.9-1.5-4.6-2.6-9.2-4-13.8-4.3.9-8.7 2.1-13.2 1.8-4.2-.3-8-4.2-7.9-8.5-.2-3.4 1.9-6.7 5-8.1 2.3-1.1 4.9-1.2 7.4-1.6-6.5-22.9-13-45.7-19.5-68.6-3.9 1.5-8.4 3.9-12.4 1.5-5.4-2.5-6.3-10.6-1.6-14.3 4.2-3.3 9.7-4.4 14.7-5.9-1.2-4.8-2.6-9.6-3.9-14.4-23.3 1.5-46.8.4-69.9-3.6-18.9-3.3-37.6-8.5-54.7-17.2-11.2-5.8-22.1-13.3-29.5-23.8-6.1-8.6-9.3-19.8-6.9-30.2 2.3-11.1 9.7-20.5 18.4-27.5 12.4-10 27.1-16.3 42.1-21m69 11.9c-21.9.7-43.9 3.6-64.8 10.4-11.9 4-23.8 9.1-33.5 17.4-4.8 4.3-9.6 10.1-9.2 17 .7 7.4 6.3 12.9 11.7 17.4 12.1 9.4 26.7 14.8 41.3 18.9 25.4 6.9 51.9 9 78.2 8 19.9-.9 39.9-3.6 59-9.5 12.7-4.1 25.5-9.3 35.7-18.2 4.7-4.3 9.5-10 9-16.8-.4-7.1-5.7-12.6-10.8-16.9-11.7-9.4-25.9-14.8-40.1-19-24.7-6.9-50.7-9.3-76.5-8.7m42.7 110.5c1.2 4.6 2.5 9.2 3.7 13.8 3-.1 6.1 0 9.1.1-1.4-5-2.8-9.9-4.2-14.9-2.8.4-5.7.7-8.6 1m9.9 31.6c2.4 8.1 4.6 16.3 7 24.4 4.9-2.3 9.8-5.7 11.9-10.8 1.4-3-.1-6.4-2.6-8.2-4.4-3.7-10.5-5.1-16.3-5.4m11.9 41.7c2.3 8 4.5 15.9 6.8 23.9 5.6-2.9 11.2-6.5 14.5-12 1.4-2.2 1.6-5.5-.7-7.1-5.7-4.6-13.5-5-20.6-4.8z"/>
    <path d="M467.4 280.5c23.3-.8 46.3 3.4 68.8 9.3 30.9 7.7 60.9 19.3 88.2 35.9 24.7 15 48.9 32.3 65.6 56.3 11.5 16.3 19.9 34.7 25.1 54 4.2 15 6.5 30.4 8.5 45.8 3.3 26.9 2.7 54.1.2 81.1-2.2 22.8-6 45.6-12.2 67.6-4.6 16-10.3 31.8-18.4 46.4-14.1 25.6-36.3 46.4-62.4 59.7-16 8.3-33.2 14.2-50.8 18.2-16.8 3.9-33.9 5.8-50.9 8-25 2.9-50.3 3.8-75.4 1.2-21.5-2-42.9-5.5-63.8-11-19.6-5.3-38.7-12.8-55.5-24.4-24-16.5-44.6-38.7-56.6-65.4-17.4-37.1-21.1-78.9-19.1-119.3 1.9-39.9 9.6-79.7 24.7-116.8 9.2-23.3 21.8-45.2 36.7-65.4 16.9-22.6 37.8-42.6 62.4-56.5 25.6-14.7 55-24.1 84.9-24.7"/>
    <path fill="#464B4B" d="M450.5 301.7c35.4-3.8 71 2.7 104.9 12.8 19.3 5.7 37.4 14.5 55 24.1 23.9 13.2 46.7 29.9 63 52.1 11.1 15.4 18.9 32.9 23.9 51.1 4.4 16 6.3 32.6 7.9 49.1 2.5 28.1 1.8 56.6-1.8 84.6-2.5 18.8-5.4 37.7-10.9 55.9-7.7 28.8-24.8 55.3-48.4 73.5-13.4 10.2-28.6 17.9-44.3 23.7-37.1 14-77.1 19.8-116.6 19.3-21.5-.5-43-2.9-64-7.7-21.8-4.9-43.4-11.7-63.4-21.8-23.7-12-44-31.1-56.4-54.7-9.9-18.8-16.4-39.3-19.8-60.3-3.2-20.6-3.5-41.7-2.3-62.5 1.4-23.8 5.4-47.3 11.6-70.3 8.2-31.7 21.3-62.3 39.2-89.8 11.7-18.1 26.2-34.5 43.5-47.4 22.8-17.2 50.2-29 78.9-31.7z"/>
    <path d="M669 503.9c-6.8-27.7-20.7-53.8-40.6-74.3-14-14.3-31.5-24.7-50-32-16.4-6.4-33.7-10.8-51.3-12-51.7-4.2-103.9 16.8-140.2 53.4-23.4 23.1-38.5 53.9-44.1 86.2-6.2 35.3-4.3 72.4 8 106.2 10.9 28.3 29.5 53.9 54 71.8 3.3 2.2 6.5 4.7 10.2 6.2 3.3 1.2 7.4-1.7 6.9-5.3.2-2.7-2.3-4.4-4.2-5.8-10-7.2-19.7-15-27.2-24.8-2.6-3.4-5.5-6.9-6.2-11.3 4.2 0 8 2.2 11.9 3.4 21.1 6.7 42.9 10.7 64.7 14.3 18.9 3.2 38 3.9 57.1 4.3 25.2.3 50.4-1.9 75.3-5.9 11-1.6 21.7-4.9 32.5-7.4-1.1 3.5-3.9 6.1-6.3 8.7-5 5.1-10.6 9.6-16.6 13.5-2.5 1.5-4.2 4.9-2.5 7.6 1.5 2.9 5.4 3.6 8 1.8 12.3-7.6 22.5-18.1 31.5-29.4 10.5-13.1 18-28.5 24.2-44 5.6-15.5 9.1-31.7 10.5-48.1 2.4-25.9 1-52.1-5.6-77.1zm-276.5-52.3c3.1-5.1 7.6-9.1 12-13.1 28.2-24.6 64.6-39.8 102.1-41.6 17.8-.9 35.7 1.4 52.8 6.5 19.3 5.7 38.1 14.5 53.4 27.7 11.9 10.1 21.5 22.8 28.3 36.9 2.1 4.1 3.1 10-.7 13.4-4.9 3.8-11.6 3.5-17.4 4.5-23.9 2.2-47.9 3.8-72 3.6-51-.5-102.2-4.5-151.8-16.8-4-1.2-7.9-3.7-9.2-7.9-1.6-4.4.2-9.3 2.5-13.2z"/>
    <path fill="#ffd400" d="M368.6 487.6c2.5-3.1 6.4-4.9 10.4-4.6 6.9.4 13.5 2.3 20.2 3.6 24.3 5.4 49 9 73.7 12.1 25.3 2.3 50.7 4.2 76.1 4.1 16.7-.5 33.5-.4 50.2-1.6 12.7-.9 25.3-2.5 37.9-4.2 4.2-.5 8.5-1.9 12.8-.9 4 1.2 5.8 5.4 7.1 9.1 2.9 9.6 3.9 19.6 5.2 29.5 1.6 12 2.3 24.2 1.4 36.3-.1 2.4-2.7 3.2-4.7 3.5-12.7 1.9-25.4 3.3-38.1 4.3.9-12.8 1-25.6.8-38.4 0-4.4-3.9-8.6-8.5-8.1-4.5.1-7.9 4.4-7.7 8.8 0 13 0 26-1 39-43.8 2.4-87.9.9-131.4-4.5.8-14.2.6-28.3 0-42.5-.1-2.8-1.2-5.6-3.6-7.2-3.1-2.3-8-1.8-10.5 1.2-2.3 2.4-2.2 6-2.1 9.1.5 12.4.7 24.8 0 37.2-32.9-4.9-65.4-11.9-97.1-21.7-2.2-.8-4.7-1.3-6.5-2.9-1.1-2-.7-4.4-.7-6.6 1-12.5 3.8-24.8 7.8-36.7 2-6.4 4.2-12.7 8.3-17.9z"/>
    <path fill="#ffd400" d="M352.7 567.5c2.3-.5 4.6.5 6.9 1.1 31.5 9.4 63.8 16.2 96.4 21-.5 10.2-2.3 20.3-3 30.4-.6 4.8-2 11.1 2.8 14.2 5 3.7 12.4-.5 12.7-6.5 1.3-12 2.8-24 3.7-36 43.5 5.3 87.4 6.8 131.1 4.6-1.1 11.4-3.2 22.6-5.7 33.8-1.1 4.6 2.5 9.9 7.4 9.8 3.9.4 7.5-2.6 8.4-6.4 3.2-12.6 5.2-25.5 6.3-38.5 11.5-.8 22.9-2.1 34.3-3.6 2.3-.3 4.8-.4 7.1.3.6 6.3-1.4 12.5-2.8 18.6-2.4 8.5-5.1 16.9-9 24.8-2.7 5-5.5 10.3-10.3 13.6-6.6 4.5-14.3 6.9-21.9 9.1-29.3 7.9-59.6 12.2-90 11.9-23.2.4-46.5-.9-69.5-4.7-22-3.5-44-8.3-64.6-17-9.8-4.2-19.8-8.9-26.8-17.2-6.3-7.5-9.1-17.2-11.2-26.6-2-9.6-3.2-19.5-3.5-29.3 0-2.4-.5-5.3 1.2-7.4z"/>
    <path d="M272.3 535.2c2.1-1.2 4.8.4 4.9 2.8.8 6.1-.2 12.6 2.6 18.4 3.7 8.7 11.8 14.3 19.3 19.6 17.7 12.7 35.6 25.1 53.4 37.6 13.4 9.3 27.3 18.2 42.2 24.9 18.1 8.1 37.5 13.8 57.4 15.5 14.8 1.4 29.6-.5 44-3.6 14.9-3.1 29.7-7.4 45-7.3 15.5-.1 30.1 5.8 45.1 8.5 14.8 2.8 30.5 3.4 44.9-1.7 19.8-6.8 36.5-20.2 52-33.9 7.3-6.4 14.8-13.5 17.6-23.1.8-3.2 2.4-7.2 6.4-7 5.4.3 7.9 6.5 7.2 11.2-4.1 28.3-12.8 56.4-28.9 80.3-9.7 14.6-22 27.5-36.2 37.8-11.7 8.5-24.4 15.6-37.6 21.4-19.2 8.4-39.3 14.8-60 18.2-22 3.6-44.2 5.6-66.5 5.5-25.9.1-52-2.2-77-9.1-12.9-3.6-25.5-8.2-37.7-13.4-18.6-8.2-36.6-18.4-51.5-32.5-10-9.5-19.1-20.1-26.1-32-9.8-16.2-16.4-34.3-20.2-52.8-4.3-20.4-6.7-41.3-6.9-62.2.3-8 0-17.6 6.6-23.1"/>
    <path fill="#464B4B" d="M283.4 583.4c2.8-.5 5.2 1.2 7.4 2.7 27.9 20.2 55.7 40.6 85.9 57.2 17.4 9.3 35.6 17.4 54.9 22.1 15.8 3.8 32.2 5.2 48.3 3 19.6-2.6 38.2-10.4 58.1-10.8 15.7-.9 30.7 4.2 46 6.6 17.9 3.2 36.7 4 54.2-1.7 17.8-5.6 32.9-17.2 46.3-29.8 1.6-1.3 3.1-3.3 5.4-3.3 2.1 0 2.2 3 1.8 4.6-7 24-21.1 45.5-39.3 62.5-11.7 10.5-25.1 19-39.4 25.6-36.5 17.1-76.8 25-116.9 25.6-26.7.5-53.5-1.9-79.5-8.2-15.8-3.9-31.6-8-46.7-14.1-28.5-11.6-54.3-31.6-69.2-58.9-12.2-22.5-19.6-47.8-21.3-73.3-.3-3.7 0-8.7 4-9.8z"/>
    <path d="M717.4 462.5c-3.5-18.2-8.7-36.2-16.8-52.9-1.1-2.7-3.5-4.9-6.5-5.1-4.6-.2-8.9 1.9-13.1 3.4-9 3.6-18.5 5.8-27.9 7.8-26 5.1-52.5 6.8-79 6.9-24.4.2-48.7-1.3-73-3.5-41.5-3.6-82.7-11.2-122.8-22.6-17.9-5.1-35.8-10.3-52.7-18.1-5-2.3-10.2-5.2-12.9-10.1-2.7-4.9-3.6-10.5-5-15.8-4.6-17.7-9.3-35.5-17-52.2-2.1-4.4-5.1-9.8-10.6-9.8-5.7-.1-9.5 4.7-12.5 9-8.7 12.5-17.7 24.7-28 36-3.2 3.8-7.3 7.5-8.2 12.7-.5 4.7 2.9 8.5 5.8 11.7 6.5 6.8 12.7 13.8 19.2 20.6-6.8-.6-13.6-1.9-20.4-1.9-4.8.2-7.4 4.9-8.6 9-5.2 16.5-9.7 33.3-15.2 49.7-.9 2.9-2.1 6.2-.7 9.2 1.3 3.4 5.2 4.6 8.5 4.9 7.7.6 15.3-.7 23-1 17.7-1.2 35.5 1.8 52.2 7.5 19.5 5.3 38.9 11.5 58.5 16.6 21.8 5.8 43.7 11.4 65.8 15.9 26.9 5.4 54 10.2 81.4 12.2 49.8 4.1 100 .7 149.1-8 16.8-3.2 33.7-6.3 50.4-10.1 5.3-1.5 11-3.1 15.2-6.8 4.1-4.1 2.5-10.2 1.8-15.2z"/>
    <path d="M271.8 318.8c1.6-1.8 3-4 5.4-4.7 2.5.2 3.2 2.9 4 4.9 7.7 22.2 15.5 44.4 22.5 66.8-2.9 5.3-5.7 10.6-8.6 15.9-12.8-14.5-25.9-28.6-39.1-42.6-2.6-2.9-5.8-5.5-7.6-9.1-.4-2.5 1.6-4.7 2.9-6.7 6.6-8.3 13.9-16.1 20.5-24.5z"/>
    <path fill="#E94000" d="M240.4 394.3c3.2-1.6 7.1-.2 10.5.2 7 1.5 15.1 1.7 20.6 7 5.4 5.3 10.2 11.1 15.3 16.7-1.8 4.3-3.6 8.7-5.3 13.1-16.5 1.5-33 3.3-49.5 4.8-2 .3-3.9-.1-5.7-.9 1.9-9.9 6.1-19.2 9.2-28.8 1.6-4 2.2-8.6 4.9-12.1z"/>
    <path fill="#E94000" d="M319.3 399.5c4.2-.9 8.3.6 12.3 1.7 17.3 5.2 34.5 10.8 52.1 15.1C453.5 434.4 526.1 441 598 436c20.1-1.5 40.2-3.6 59.9-8 8.2-2 16.6-3.6 25-4.9 2.9-.6 6.6-.2 7.9 3 4.6 9.8 7 20.5 9.2 31.1.4 3.3 1.7 7 .1 10.2-1.8 3.4-5.8 4.5-9.2 5.5C667 479.2 642.5 483 618 486c-43.5 5.5-87.5 5.5-131 1-40.1-4.1-80.1-11.1-118.9-21.9-19.3-5.4-38.6-11.3-57.6-17.6-3.5-1.4-7.6-2.6-9.6-6.1-1.6-3.6.3-7.4 1.4-10.9 1.5-3.7 2.8-8.4 7-9.8 6.5-1.6 12.4 2.4 18.6 3.8 1.9-.2 2.5-3.1.8-4-4.6-2.4-10-3.6-13.7-7.5-1.8-1.8-2.3-4.7-1.1-7 1.2-2.6 2.6-5.6 5.4-6.5z"/>
</svg>
