<svg xmlns="http://www.w3.org/2000/svg" viewBox="0 0 1000 1000">
    <title>Pizza Ninjas #181</title>
    <path class="st0" d="M485.7 915.3c-37.7-37.8-78.2-72.6-118.6-107.5-30.8-26-61.7-51.9-94-76.1 3.7-4.9 7-10.1 10.4-15.2 1.9-3.1 4.1-6.1 5-9.6.7-2.3-.5-4.8-2.3-6.2-12.1-10-24.2-19.9-36.8-29.1-2.5-2.3-6.9-2.3-8.8.8-5 8.2-10.1 16.3-15.3 24.5-31.8-22.5-64.8-43.3-98.3-63.1-4.1-2.3-8.1-4.6-12.2-6.7-2.9-1.6-6.4-.2-8.4 2.1-3.2 3.6-5.6 7.8-8.2 11.9-6.8 11.2-13.8 22.2-21.2 32.9-1.9 2.9-4.2 6.4-2.9 10 1.5 3.9 5.9 4.9 9.1 6.8 35.9 19.2 70.9 39.9 105.6 61.2-3.8 5.7-7.8 11.3-11.8 17-1.4 2.1-3 4.3-2.8 7 .3 3.2 2.9 5.6 5.1 7.7 7.3 6.5 16 11.2 23.6 17.2 3.5 2.4 6.6 5.8 11 6.5 3.6.3 6.4-2.5 8.6-5 5.1-6.1 9.3-12.7 13.9-19.2 35.2 24.4 68.6 51.2 101 79.3 22.5 19.8 44.2 40.5 65.9 61.1 12.5 12.1 25.1 24.1 37.2 36.7 2.6 2.8 7.3 2.7 10 .1 12-10.7 23.8-21.5 35.7-32.2 1.8-1.6 3.5-3.7 3.4-6.3 0-2.7-2.1-4.8-3.9-6.6z"/>
    <path class="st1" fill="#FF3CAE" d="M117.2 646.5c15.2 8.8 30.3 17.9 45.3 27 17.6 10.9 34.7 22.6 51.9 34.2 1 .6 1.8 1.4 2.8 2.2-6.2 9.5-12.4 19-18.9 28.2-17.5-11.7-35.1-23.4-53.2-34.1-15.1-8.9-30-18.2-45.3-26.8 5.8-10.2 11.5-20.5 17.4-30.7z"/>
    <path class="st1" fill="#FF3CAE" d="M245 770.5c6-9.2 12.1-18.3 18.9-27 57.4 42.4 111.5 89.1 163.7 137.8 14.1 13.2 28 26.8 42.1 40.1-7.5 7.9-15.3 15.5-22.9 23.3-20.4-20.5-41.3-40.4-62.5-60-44.1-40.9-90.6-79-139.3-114.2z"/>
    <path class="st2" fill="#FFD400" d="M193.2 772.8c18.2-26.4 36.5-52.8 54.8-79.2l20.1 14.7c-18.1 26.4-36.2 52.9-54.4 79.3-6.8-5-13.6-9.8-20.5-14.8z"/>
    <path class="st0" d="M722.1 822c-3.9-5.2-9.7-8.5-14.8-12.3-23.7-16-47.1-32.3-70.9-48.1-23.5-15.8-48.3-30-74.8-40.2-19.7-8.1-40.6-13-61.6-16.3-20.9-3.2-41.9-6.2-63-6.2-20.5-.3-41.1 2.3-60.8 8.3-29.6 9.2-54 30.5-71.8 55.4-20.9 29.2-35.2 62.8-44.5 97.4-9.7 35.8-12.3 73.2-10.8 110.1.2 10 .4 20 1.7 30H690c-9.3-34.2-20.4-67.8-32.2-101.2 13.6 6.4 28.2 11.3 43.2 13 4.8.1 10.6 1.2 14.4-2.4 1.3-3.3.3-6.9 0-10.2-3-21.6-3.9-44.7 4.7-65.2 1.2-3.9 4.8-8.3 2-12.1z"/>
    <path class="st1" d="M376.6 728.3c22.7-7.5 46.7-9.9 70.4-10.3 22.9-.4 45.8 2.5 68 8.2 16.1 4.2 32 10.4 45.7 20.1 12.9 9.1 22.6 21.9 30.5 35.5 14.9 26.5 26.4 54.7 37.2 83.1 17 44.2 29.7 89.9 43.5 135.1h-279c-9.7-46.6-19.1-93.3-28.7-139.9-.5-4.9-5.9-8.4-10.5-6.4-3.9 1.3-5.2 5.8-4.4 9.5 6.1 45.6 12.2 91.3 18.3 136.9h-95.4c-3.4-21.8-5-43.9-5.6-66 .1-18.1 2.1-36.2 5.8-54 6.3-31.4 18.7-61.4 34.9-89 9.9-16.8 22.6-31.8 37.5-44.4 9.2-8.1 20-14.6 31.8-18.4z"/>
    <path class="st1" d="M631.5 791.5c5-2.4 11-1 15.8 1.3 13.2 6.5 24.7 15.9 36.9 24.1 7.9 5.8 16.5 10.7 23.2 17.9-5 19.3-5.6 39.6-4.4 59.5-14.8-2-28.9-7.2-41.9-14.4-7-3.9-14.7-8.3-17.8-16.2-5.4-14.1-10.8-28.2-16.8-42.1-2.8-5.6-2.5-12-1.8-18 .6-4.6 2.3-9.8 6.8-12.1z"/>
    <path class="st3" d="M823.2 580.3c16.6-2 33.5 1.2 48.8 7.7 13.2 5.7 25.4 14.4 33.7 26.3 11.1 15.9 16 35.5 15.5 54.7-.5 16.4-4.9 33.2-14.8 46.6-6 8.3-14 14.8-22.5 20.4-14.9 9.1-32.7 12.4-50 12.4-21.5-.5-42.4-9.7-57.8-24.5-3.7-3.3-6.5-7.5-10.5-10.5-4-2.8-9.1-2.5-13.7-2.5-11.3.2-22.7.4-34.1.2-4.9-.2-7.8-6.8-4.3-10.4 10.2-10.1 20.8-19.9 31-30 4.1-4.5 2.8-11 2.9-16.5 1-16.1 7.3-31.8 17.1-44.5 14.3-17.7 36.6-27.2 58.7-29.4"/>
    <path class="st3" d="M799.8 768.8c5.2-4.8 11.9-8.4 19.1-8.7 12.2-.7 24 6.7 29.7 17.3 4.9 9 7.2 19.6 5.3 29.7-.9 5.5-3.4 10.6-6.2 15.5 17.3 7.4 33.8 21.2 38.4 40.2 3.3 13.6-2.9 27.6-12.7 37 1.7 14.5-5.6 30.3-19 36.7-2.7 1.4-5.7 2.2-8.6 3-5 17.3-25.5 28.1-42.6 22.4-6.6-2-12.3-6.3-16.2-12-9.8 2-20.2 2.3-29.7-1.2-9.8-3.6-18.7-10.8-22.8-20.6-7.7.6-16-.5-22-5.8-5.6-4.8-7.4-12.3-8-19.3-.9-14-.8-28.1-.1-42.1.6-13.7 3.7-28.2 12.8-38.9 4.1-5.5 11.1-8.9 18-7.8 5.8.7 11.8 4.3 17.5 1.5 8.9-4.2 15.7-11.7 22.3-18.8 8.4-9.2 15.6-19.5 24.8-28.1"/>
    <path class="st0" fill="#ededed" d="M794 606.9c16.8-11.2 38.4-14.5 58-9.7 13.6 3.5 26.3 10.7 35.7 21.1 9.5 10.4 15.7 23.9 17.1 38 2 17.4-3.5 35.4-14.7 48.8-18.8 23.5-53.4 32.3-81.2 21.1-13.7-6.7-26.8-16-34.7-29.3-1.2-2.2-3.4-4.1-6.1-3.7-9.2.4-18.5 1.3-27.6 2.6 7.3-6.1 14.7-12.2 21.1-19.2 3.6-3.6 2.5-9 2.6-13.5-.2-6.9.4-13.8 2.3-20.4 4.6-14.7 14.5-27.6 27.5-35.8"/>
    <path class="st1" fill="#ff002c" d="M799.4 634.3c5-4.8 12.4-6.8 19.2-5.8 6.2 1 11.7 4.4 16.2 8.7 4.3-4.2 9.6-7.5 15.5-8.6 7.1-1.2 14.9.8 20.1 5.9 8.2 7.9 10.2 21.2 5.6 31.4-5.1 11.3-16.1 17.9-24.5 26.5-3.2 3.2-5.5 7.2-9 10-5.1 3.9-13.2 3.3-17.5-1.6-2.8-3.2-5.3-6.7-8.4-9.6-7.3-7.3-16.4-13.2-21.7-22.3-6.4-10.6-4.8-26 4.5-34.6z"/>
    <path class="st2" fill="#FF3CAE" d="M817.8 775.7c4.4-2 9.8-1.2 13.4 2 7.9 6.5 10.1 17.9 8 27.5-2.9 10.1-10.9 18.1-20.2 22.6-8 3.8-16.7 5.7-25.3 7-3.1.2-5.3 4-3.3 6.6 2 2.8 5.8 1.6 8.7 1.5 13.1-1.2 25.8-5.6 38.9-6.8 7.7-.7 15.4 1.6 21.6 6.4 8.4 6.3 15.2 15.7 16 26.5.7 6.5-1.6 13.4-6.8 17.6-5.7 4.6-13.6 5.3-20.6 4.4-8.4-1.3-16.8-5.3-21.8-12.4-3.7-5.3-5-13-1.2-18.6 2.3-3.6 6.9-4.6 11-4.3 8.6.6 16.6 4.7 23.5 9.8 2.7 2.2 6.8-.2 6.7-3.5-.6-3.4-3.8-5.1-6.4-6.8-8.6-5.1-18.5-9.1-28.7-8-6.5.7-12.4 5-15 11-2.6 5.2-2.3 11.3-1.2 16.9-8.3 3.5-16.3 9.8-18.6 19-1.2 4-.3 8.2.5 12.2.4 2.1-2.2 2.8-3.5 4-8.4 5.2-12.9 15.7-10.7 25.5-9.4 3-19.7.5-28-4.4-5.5-3.3-10.7-7.8-12.9-14-1.2-3.9-1.8-8.5.6-12 1.5-2.5 4.6-4.3 7.6-3.5 4.7 1 9.5 4.8 14.5 2.5 3.1-.9 4.2-5.3 1.5-7.3-3.3-1.9-7-3.4-9.9-6-15.3-11.7-18.9-36-7.4-51.5 7.2-9.3 18-14.7 27.1-21.9 10.5-7.8 19.2-17.6 27-28 4-5.5 8.5-11.1 14.9-14z"/>
    <path class="st2" fill="#FF3CAE" d="M732 828c4.2-1.9 9-.6 12.8 1.6-6.1 5.6-10.5 12.9-12.1 21.1-2.1 10.1-1 20.5 1.4 30.4 1.5 5.2-1.6 10-3.3 14.7-1.7 4.1-2.1 8.5-2.4 12.9-3.1-.3-5.9-2.1-6.7-5.2-2.8-8.8-2.7-18.2-3.1-27.4-.1-11.9-.1-24.2 3.9-35.6 1.8-5 4.5-10.2 9.5-12.5z"/>
    <path class="st2" fill="#FF3CAE" d="M805.1 895.1c2.1-6 7.9-9.7 13.5-12 9.3 13.1 26.6 19.3 42.2 16.5 1.3 6.7.9 14.3-3.2 20-4.6 6.2-13.2 8-20.5 6.8-10.3-1.7-20.1-6.8-27-14.6-4-4.4-6.9-10.7-5-16.7z"/>
    <path class="st2" fill="#FF3CAE" d="M791 927.9c.9-5.8 5.5-10.3 10.8-12.4 8 10 19.7 16.6 32.2 19.4-.4 6.3-4.3 12.5-10.5 14.6-9.6 3.2-20.2-1-27.2-7.8-3.6-3.5-6.3-8.6-5.3-13.8z"/>
    <path class="st1" d="M667.7 938.3c-.7-2.1-2.4-3.6-4.2-4.8-17.1-9.7-33.8-20.2-50.7-30.2-23.5-14.2-47-28.3-70.5-42.5 19.2-24.9 38.6-49.7 58.1-74.4 1.9-2.7 4.7-5.1 5.2-8.5-.3-3.8-2.4-7.2-4.1-10.5-5-8.9-11.1-17.3-18.9-23.9-2.9-2.6-7.2-1.2-9.5 1.5-26.7 28.7-53.4 57.4-80.1 86-49.1-29.5-98.2-59.1-147.3-88.7-3.8-2.1-7.2-5.4-11.6-5.8-4.1.5-6.6 4.3-9.5 6.9-11.9 12.7-22.6 26.5-31.6 41.5-1.5 2.8-3.6 5.7-3.1 9 .2 2 1.8 3.6 3.5 4.6 50.8 27.6 101.3 55.7 152 83.5-23.9 25.8-48 51.5-71.9 77.3-2.7 2.5-2.4 6.4-1.7 9.7 2.2 10.3 4.3 20.6 6.6 30.9h56.3c22.4-28.9 44.7-57.9 67.1-86.8 52.6 28.9 105.1 57.9 157.7 86.8h27c-6.6-20.4-12.3-41.1-18.8-61.6z"/>
    <path class="st1" d="M383.9 966.2c1.9 11.3 4.7 22.5 7 33.8h-12.5"/>
    <path class="st1" d="M654.5 943.5c-38.1-22.8-76-46-114.2-68.6-8 10.6-16.2 21-24.2 31.6"/>
    <path class="st0" fill="#FF3CAE" d="M305.2 790.2c8.5-14.1 18.4-27.7 30.8-38.6 49.3 29.6 98.6 59.4 147.9 89.1-9.9 10.5-19.6 21.3-29.7 31.7-49.6-27.5-99.4-54.7-149-82.2z"/>
    <path class="st0" fill="#FF3CAE" d="M383.9 966.2c63.9-68.6 127.8-137.3 191.8-205.9 5.3 5.8 9.8 12.3 13.9 19-25 32.7-50.5 65.1-75.9 97.5-32.4 41.1-64.6 82.3-97.1 123.3h-25.8c-2.2-11.4-5-22.6-6.9-33.9z"/>
    <path class="st0" fill="#FF3CAE" d="M540.3 874.9c38.2 22.6 76.1 45.8 114.2 68.6 4.9 15.5 9.6 31.1 14.3 46.7-15.5-7.9-30.6-16.7-45.9-25-35.6-19.6-71.1-39.2-106.8-58.7 8-10.7 16.2-21.1 24.2-31.6z"/>
    <path class="st1" d="M733.6 565c-4-35-20.7-67.3-41.3-95.3-19.8-26.8-43.3-50.9-69.3-71.8-27.1-21.1-58.3-36.7-90.9-47.2-20.3-6.1-41.6-9.1-62.8-8.4-42 1.5-83.2 18.5-113.8 47.4-13.1 12.3-23.6 27.3-31.1 43.6-8 17.6-13.6 36.2-17.8 55-.9 2.8-1.1 6-2.8 8.4-12.1 10.6-23.3 22.4-32.2 35.9-8.2 12.4-13.8 26.5-17.3 41-5.4 23.9-2.2 49.6 8.4 71.6 12.6 27 34.1 49 58.8 65.1 17.4 10.9 36.2 19.3 55.3 26.7 35.8 13 73.4 21.7 111.6 23.6 20.2 1.3 40.6.8 60.7-2 22.9-3.4 45.5-10 66.5-19.8 9.9-4.7 19.7-9.5 29.1-15 14.7-8.5 28.2-18.9 40.7-30.4 19.6-18.2 35.7-40.8 43.6-66.6 6.4-19.8 6.8-41.1 4.6-61.8z"/>
    <path class="st0" fill="#00A900" d="M703.3 526.8c-11.4-28.4-30.1-53.1-50.1-76-21.5-24.3-47.4-44.5-75.5-60.6-20-11.4-42-19.4-64.6-23.9-17.4-3.6-35.2-4.5-52.9-2.9-29.4 3.3-59 12.9-82.3 31.7-24.1 19.8-39.5 48.6-47.5 78.4-3.5 10-4.9 20.6-8.5 30.5-2.2 6.3-7.8 10.2-12.1 14.9-14.4 14.6-26.2 31.9-32.8 51.4-7.2 20.5-7.1 43.5.5 63.9 5.4 14.4 13.6 27.9 24.5 38.7 12.2 12.2 26.8 21.8 42.1 29.8 15.6 8.4 32.2 14.8 49 20.1 14.1 4.5 28.4 8.1 43 10.7 25.6 5.1 51.7 7.4 77.8 6.1 25.1-.9 50.2-4.5 74.1-12.2 28.5-9.4 56.2-22.6 79.5-41.7 15-12.6 27.4-28.3 36.1-45.9 7.5-15.1 11-32 11.5-48.7.5-22-3.6-43.9-11.8-64.3z"/>
    <path class="st2" d="M474.3 615.2c11.8-1 22.8 4.6 32.3 11 6.8 3.9 15.1 5.8 22.9 4.1 9-1.9 18.1-4.9 27.4-3.2 6.9 1 13.3 5.2 16.8 11.2 5.6 9.1 5.7 20.5 2.8 30.5-4.6 16.1-15.5 30.1-29.1 39.7-12.4 8.5-27.3 14-42.5 13.2-14.2-.4-27.6-7.3-37.9-16.9-12.9-11.8-21.3-28.3-23.5-45.6-.5-7.2-.5-14.7 2.1-21.5 4.3-12.2 15.9-21.4 28.7-22.5"/>
    <path class="st0" fill="#464b4b" d="M457.5 641.6c3.1-9 13.3-15.6 22.8-12.8 11.8 3.2 21.4 12 33.6 14.1 11.8 2.1 23.4-2.4 35.1-3 4.3-.1 9.3.2 12.4 3.8 3.6 4.2 4.2 10 4 15.3-.2 8.5-4.1 16.3-8.8 23.1-14.6-10.2-31.4-17.8-49.3-19.4-16.5-1.4-33.1 1.3-48.9 6-2.7-8.7-4.1-18.3-.9-27.1z"/>
    <path class="st1" fill="#ff002c" d="M491.4 671.4c13.9-.6 28.5 1.4 40.7 8.4 4.7 3.2 10.3 7 11.4 12.9-1 4.7-5.7 7.1-9.4 9.3-11.6 6.3-25.7 9.5-38.6 5.5-12.6-3.9-23.1-13.1-30.1-24.1-2.1-3 .1-6.9 3.2-8 7.2-2.9 15.1-3.4 22.8-4z"/>
    <path class="st2" d="M720.5 524.5c-4.9-14.7-13.1-28.1-21.2-41.2 4.1-12.3 5.6-25.4 5-38.3-1-19.5-8.7-38.8-22.5-52.8-10-10.4-24.3-16.8-38.8-16.7-13.2-.3-26.5 4.2-36.9 12.3-18.5-12.5-39-22.1-60-29.6-15.3-5.3-31-9.5-47.1-11.3-1.5 0-2.6-1.2-3.6-2.1-12.6-11.5-28.3-19.9-45.3-22-16.8-2.2-34.2 2.6-48.2 12-18.1 12.2-31 30.8-39.2 50.8-.6 1.3-1.8 2.2-2.8 3.2-9.2 8.6-17.3 18.4-24 29-8.9 14.3-15.5 29.9-20.9 45.8-27.4-5.2-51.4-21.2-71.4-40-5.8-5.2-11.2-11.1-17.8-15.2-5-3.2-11.3-.6-15.1 3.3-8 8.1-12.4 18.9-16.4 29.3-4.7 11.8-7.5 24.2-9.8 36.6-1 5.1-.4 10.9 3.6 14.6 5.7 5.3 13 8.2 19.9 11.6-5.3 3.3-11.4 5.6-15.7 10.2-5 6.1-2.6 14.6-.3 21.3 5 13.7 13.7 26.3 25 35.7 3.2 2.7 7.5 5.5 11.8 3.6 4.6-2.1 7.3-6.6 10.5-10.2 9.9-12.5 21.2-24 34.5-32.8 2.6-1.7 6.8-3.1 9.1-.2 2.3 4.6.1 9.8-.1 14.7.1 2.1 3.1 2.4 4 .7 5.9-8.1 12-16 19.1-23 10.6-11 24.1-18.7 37.8-25.2 5.3-2.1 10.8-5.5 16.7-3.7 5.3 1.5 7.9 6.8 10.5 11.2 8.1 15.4 19.5 29.4 34.1 39 13.8 9.2 30.6 14 47.2 12.6 15-1.1 29.4-7.2 41.2-16.4 14.3-11.1 24.9-26.3 32.2-42.7 2.7-5.7 4.5-11.8 7.7-17.3 1.9-3.4 5-6.1 8.8-7.3 7-2.3 14.6-1 21.8-.3 5.4.7 11.6 1.8 15 6.4 4.5 6.3 6.6 13.9 10.7 20.5 7.9 13.4 20.5 24.6 35.9 28.2 14.5 3.5 30.1.8 43-6.3 5.5-2.9 11.9-6 18.3-3.9 9.9 3.2 16.1 12.3 20.5 21.2 1.8 3.3 3 7.9 7.2 8.8 3.7 1.2 6.9-2 7.7-5.3 1.4-6.3.3-12.8-1.7-18.8z"/>
    <path class="st0" fill="#00A28A" d="M431.7 343.6c15.8-4.2 33.1-.8 46.9 7.8 20.9 13 34.4 35.4 40.6 58.7-50.2 12-100.4 23.9-150.6 35.8-.5-25.4 6.1-51.4 21-72.3 10.1-14.2 24.8-26 42.1-30z"/>
    <path class="st0" fill="#00A28A" d="M513.9 367c20 4.2 39.4 11.3 57.7 20.5 7.8 3.9 15.3 8.5 22.3 13.7-12 18.2-17 40.5-15.5 62.2-14.2-2.5-28.6-3.9-42.9-5.6 1.8-19.5-.2-39.4-6.3-58.1-3.8-11.5-9-22.5-15.3-32.7z"/>
    <path class="st0" fill="#00A28A" d="M631.4 392.5c11.7-3.6 25-.9 34.6 6.6 12.3 9.4 19.1 24.4 21.5 39.4-28.5-7.2-57-14.3-85.5-21.6 6.6-11.1 16.8-20.6 29.4-24.4z"/>
    <path class="st0" fill="#00A28A" d="M325.9 492.4c6.4-24.6 13.9-49.5 28.8-70.4-1.2 18.6 0 37.5 5.1 55.4-11.5 4.6-22.8 9.7-33.9 15z"/>
    <path class="st0" fill="#00A28A" d="M216.3 428.3c2.1-.9 3.4 1.4 4.7 2.6 14.4 16.2 32.5 29.3 52.6 37.5 11.2 4.7 23 8 34.7 11.3-1.7 6.9-2.9 14.4-8 19.7-3.2 3.4-7.8 5.1-12.3 5.4-24.4 2.4-49.5-.8-71.9-11-4.9-2.3-10.8-4.5-13.2-9.8-1.7-5.2-1.6-10.7-.9-16.1 1.5-11.5 5-22.7 9.8-33.2 1.2-2.3 2.4-4.9 4.5-6.4z"/>
    <path class="st0" fill="#00A28A" d="M212.7 521.7c6.7-3.3 13.4-6.4 20.4-9 1.6-.7 3.2-.2 4.8.1 10.2 2.3 20.6 3.7 31 4.7-14.3 7-27 17-37.6 28.8-2.3 2.4-4.2 5.1-6.9 7-1.8 1.3-3.8-.5-4.9-1.8-5.8-7.2-10.2-15.7-12.8-24.6.9-2.7 3.8-3.9 6-5.2z"/>
    <path class="st1" fill="#ededed" d="M369.4 457.3c50.8-12 101.5-24.1 152.3-36.1 3.9 23.1 2.1 47.2-6.5 69.1-5.8 14.8-14.7 28.7-26.9 39-9.7 8.3-21.7 14.1-34.4 15.7-17 2.3-34.4-3.7-47.6-14.3-22-17.8-34-45.7-36.9-73.4z"/>
    <path class="st1" fill="#ededed" d="m596.7 427.2 91.8 23.1c-.2 16.7-5 33.6-15.2 46.9-7.2 9.5-17.4 17.1-29.2 19.4-11 2.4-22.9-1-31.6-8-9.2-7.4-15.4-18.1-18.6-29.3-5-17.1-3.7-35.7 2.8-52.1z"/>
</svg>
