<svg xmlns="http://www.w3.org/2000/svg" viewBox="0 0 1000 1000">
    <title>Pizza Ninjas #268</title>
    <path class="st0" d="M485.7 915.3c-37.7-37.8-78.2-72.6-118.6-107.5-30.8-26-61.7-51.9-94-76.1 3.7-4.9 7-10.1 10.4-15.2 1.9-3.1 4.1-6.1 5-9.6.7-2.3-.5-4.8-2.3-6.2-12.1-10-24.2-19.9-36.8-29.1-2.5-2.3-6.9-2.3-8.8.8-5 8.2-10.1 16.3-15.3 24.5-31.8-22.5-64.8-43.3-98.3-63.1-4.1-2.3-8.1-4.6-12.2-6.7-2.9-1.6-6.4-.2-8.4 2.1-3.2 3.6-5.6 7.8-8.2 11.9-6.8 11.2-13.8 22.2-21.2 32.9-1.9 2.9-4.2 6.4-2.9 10 1.5 3.9 5.9 4.9 9.1 6.8 35.9 19.2 70.9 39.9 105.6 61.2-3.8 5.7-7.8 11.3-11.8 17-1.4 2.1-3 4.3-2.8 7 .3 3.2 2.9 5.6 5.1 7.7 7.3 6.5 16 11.2 23.6 17.2 3.5 2.4 6.6 5.8 11 6.5 3.6.3 6.4-2.5 8.6-5 5.1-6.1 9.3-12.7 13.9-19.2 35.2 24.4 68.6 51.2 101 79.3 22.5 19.8 44.2 40.5 65.9 61.1 12.5 12.1 25.1 24.1 37.2 36.7 2.6 2.8 7.3 2.7 10 .1 12-10.7 23.8-21.5 35.7-32.2 1.8-1.6 3.5-3.7 3.4-6.3 0-2.7-2.1-4.8-3.9-6.6z"/>
    <path class="st1" fill="#EDEDED" d="M117.2 646.5c15.2 8.8 30.3 17.9 45.3 27 17.6 10.9 34.7 22.6 51.9 34.2 1 .6 1.8 1.4 2.8 2.2-6.2 9.5-12.4 19-18.9 28.2-17.5-11.7-35.1-23.4-53.2-34.1-15.1-8.9-30-18.2-45.3-26.8 5.8-10.2 11.5-20.5 17.4-30.7z"/>
    <path class="st1" fill="#EDEDED" d="M245 770.5c6-9.2 12.1-18.3 18.9-27 57.4 42.4 111.5 89.1 163.7 137.8 14.1 13.2 28 26.8 42.1 40.1-7.5 7.9-15.3 15.5-22.9 23.3-20.4-20.5-41.3-40.4-62.5-60-44.1-40.9-90.6-79-139.3-114.2z"/>
    <path class="st2" fill="#FFD400" d="M193.2 772.8c18.2-26.4 36.5-52.8 54.8-79.2l20.1 14.7c-18.1 26.4-36.2 52.9-54.4 79.3-6.8-5-13.6-9.8-20.5-14.8z"/>
    <path class="st0" d="M722.1 822c-3.9-5.2-9.7-8.5-14.8-12.3-23.7-16-47.1-32.3-70.9-48.1-23.5-15.8-48.3-30-74.8-40.2-19.7-8.1-40.6-13-61.6-16.3-20.9-3.2-41.9-6.2-63-6.2-20.5-.3-41.1 2.3-60.8 8.3-29.6 9.2-54 30.5-71.8 55.4-20.9 29.2-35.2 62.8-44.5 97.4-9.7 35.8-12.3 73.2-10.8 110.1.2 10 .4 20 1.7 30H690c-9.3-34.2-20.4-67.8-32.2-101.2 13.6 6.4 28.2 11.3 43.2 13 4.8.1 10.6 1.2 14.4-2.4 1.3-3.3.3-6.9 0-10.2-3-21.6-3.9-44.7 4.7-65.2 1.2-3.9 4.8-8.3 2-12.1z"/>
    <path class="st1" fill="#B36CFF" d="M376.6 728.3c22.7-7.5 46.7-9.9 70.4-10.3 22.9-.4 45.8 2.5 68 8.2 16.1 4.2 32 10.4 45.7 20.1 12.9 9.1 22.6 21.9 30.5 35.5 14.9 26.5 26.4 54.7 37.2 83.1 17 44.2 29.7 89.9 43.5 135.1h-279c-9.7-46.6-19.1-93.3-28.7-139.9-.5-4.9-5.9-8.4-10.5-6.4-3.9 1.3-5.2 5.8-4.4 9.5 6.1 45.6 12.2 91.3 18.3 136.9h-95.4c-3.4-21.8-5-43.9-5.6-66 .1-18.1 2.1-36.2 5.8-54 6.3-31.4 18.7-61.4 34.9-89 9.9-16.8 22.6-31.8 37.5-44.4 9.2-8.1 20-14.6 31.8-18.4z"/>
    <path class="st1" fill="#B36CFF" d="M631.5 791.5c5-2.4 11-1 15.8 1.3 13.2 6.5 24.7 15.9 36.9 24.1 7.9 5.8 16.5 10.7 23.2 17.9-5 19.3-5.6 39.6-4.4 59.5-14.8-2-28.9-7.2-41.9-14.4-7-3.9-14.7-8.3-17.8-16.2-5.4-14.1-10.8-28.2-16.8-42.1-2.8-5.6-2.5-12-1.8-18 .6-4.6 2.3-9.8 6.8-12.1z"/>
    <path class="st3" d="M823.2 580.3c16.6-2 33.5 1.2 48.8 7.7 13.2 5.7 25.4 14.4 33.7 26.3 11.1 15.9 16 35.5 15.5 54.7-.5 16.4-4.9 33.2-14.8 46.6-6 8.3-14 14.8-22.5 20.4-14.9 9.1-32.7 12.4-50 12.4-21.5-.5-42.4-9.7-57.8-24.5-3.7-3.3-6.5-7.5-10.5-10.5-4-2.8-9.1-2.5-13.7-2.5-11.3.2-22.7.4-34.1.2-4.9-.2-7.8-6.8-4.3-10.4 10.2-10.1 20.8-19.9 31-30 4.1-4.5 2.8-11 2.9-16.5 1-16.1 7.3-31.8 17.1-44.5 14.3-17.7 36.6-27.2 58.7-29.4"/>
    <path class="st3" d="M799.8 768.8c5.2-4.8 11.9-8.4 19.1-8.7 12.2-.7 24 6.7 29.7 17.3 4.9 9 7.2 19.6 5.3 29.7-.9 5.5-3.4 10.6-6.2 15.5 17.3 7.4 33.8 21.2 38.4 40.2 3.3 13.6-2.9 27.6-12.7 37 1.7 14.5-5.6 30.3-19 36.7-2.7 1.4-5.7 2.2-8.6 3-5 17.3-25.5 28.1-42.6 22.4-6.6-2-12.3-6.3-16.2-12-9.8 2-20.2 2.3-29.7-1.2-9.8-3.6-18.7-10.8-22.8-20.6-7.7.6-16-.5-22-5.8-5.6-4.8-7.4-12.3-8-19.3-.9-14-.8-28.1-.1-42.1.6-13.7 3.7-28.2 12.8-38.9 4.1-5.5 11.1-8.9 18-7.8 5.8.7 11.8 4.3 17.5 1.5 8.9-4.2 15.7-11.7 22.3-18.8 8.4-9.2 15.6-19.5 24.8-28.1"/>
    <path class="st0" fill="#ededed" d="M794 606.9c16.8-11.2 38.4-14.5 58-9.7 13.6 3.5 26.3 10.7 35.7 21.1 9.5 10.4 15.7 23.9 17.1 38 2 17.4-3.5 35.4-14.7 48.8-18.8 23.5-53.4 32.3-81.2 21.1-13.7-6.7-26.8-16-34.7-29.3-1.2-2.2-3.4-4.1-6.1-3.7-9.2.4-18.5 1.3-27.6 2.6 7.3-6.1 14.7-12.2 21.1-19.2 3.6-3.6 2.5-9 2.6-13.5-.2-6.9.4-13.8 2.3-20.4 4.6-14.7 14.5-27.6 27.5-35.8"/>
    <path class="st1" fill="#ff002c" d="M799.4 634.3c5-4.8 12.4-6.8 19.2-5.8 6.2 1 11.7 4.4 16.2 8.7 4.3-4.2 9.6-7.5 15.5-8.6 7.1-1.2 14.9.8 20.1 5.9 8.2 7.9 10.2 21.2 5.6 31.4-5.1 11.3-16.1 17.9-24.5 26.5-3.2 3.2-5.5 7.2-9 10-5.1 3.9-13.2 3.3-17.5-1.6-2.8-3.2-5.3-6.7-8.4-9.6-7.3-7.3-16.4-13.2-21.7-22.3-6.4-10.6-4.8-26 4.5-34.6z"/>
    <path class="st2" fill="#ededed" d="M817.8 775.7c4.4-2 9.8-1.2 13.4 2 7.9 6.5 10.1 17.9 8 27.5-2.9 10.1-10.9 18.1-20.2 22.6-8 3.8-16.7 5.7-25.3 7-3.1.2-5.3 4-3.3 6.6 2 2.8 5.8 1.6 8.7 1.5 13.1-1.2 25.8-5.6 38.9-6.8 7.7-.7 15.4 1.6 21.6 6.4 8.4 6.3 15.2 15.7 16 26.5.7 6.5-1.6 13.4-6.8 17.6-5.7 4.6-13.6 5.3-20.6 4.4-8.4-1.3-16.8-5.3-21.8-12.4-3.7-5.3-5-13-1.2-18.6 2.3-3.6 6.9-4.6 11-4.3 8.6.6 16.6 4.7 23.5 9.8 2.7 2.2 6.8-.2 6.7-3.5-.6-3.4-3.8-5.1-6.4-6.8-8.6-5.1-18.5-9.1-28.7-8-6.5.7-12.4 5-15 11-2.6 5.2-2.3 11.3-1.2 16.9-8.3 3.5-16.3 9.8-18.6 19-1.2 4-.3 8.2.5 12.2.4 2.1-2.2 2.8-3.5 4-8.4 5.2-12.9 15.7-10.7 25.5-9.4 3-19.7.5-28-4.4-5.5-3.3-10.7-7.8-12.9-14-1.2-3.9-1.8-8.5.6-12 1.5-2.5 4.6-4.3 7.6-3.5 4.7 1 9.5 4.8 14.5 2.5 3.1-.9 4.2-5.3 1.5-7.3-3.3-1.9-7-3.4-9.9-6-15.3-11.7-18.9-36-7.4-51.5 7.2-9.3 18-14.7 27.1-21.9 10.5-7.8 19.2-17.6 27-28 4-5.5 8.5-11.1 14.9-14z"/>
    <path class="st2" fill="#ededed" d="M732 828c4.2-1.9 9-.6 12.8 1.6-6.1 5.6-10.5 12.9-12.1 21.1-2.1 10.1-1 20.5 1.4 30.4 1.5 5.2-1.6 10-3.3 14.7-1.7 4.1-2.1 8.5-2.4 12.9-3.1-.3-5.9-2.1-6.7-5.2-2.8-8.8-2.7-18.2-3.1-27.4-.1-11.9-.1-24.2 3.9-35.6 1.8-5 4.5-10.2 9.5-12.5z"/>
    <path class="st2" fill="#ededed" d="M805.1 895.1c2.1-6 7.9-9.7 13.5-12 9.3 13.1 26.6 19.3 42.2 16.5 1.3 6.7.9 14.3-3.2 20-4.6 6.2-13.2 8-20.5 6.8-10.3-1.7-20.1-6.8-27-14.6-4-4.4-6.9-10.7-5-16.7z"/>
    <path class="st2" fill="#ededed" d="M791 927.9c.9-5.8 5.5-10.3 10.8-12.4 8 10 19.7 16.6 32.2 19.4-.4 6.3-4.3 12.5-10.5 14.6-9.6 3.2-20.2-1-27.2-7.8-3.6-3.5-6.3-8.6-5.3-13.8z"/>
    <path class="st0" fill="#ffd400" d="M434.1 678.8c26.1-1.7 52.3-.5 78.1 3.6 20.7 3.3 41.4 8.5 60.6 17 13.5 6.2 26.9 13.8 36.2 25.7 6.7 8.3 10.8 19.3 8.8 30-1.6 10.3-8.1 19.2-15.8 25.9-10.6 9.1-23.5 15.1-36.6 19.6-13.8 4.8-28.1 7.8-42.5 10 1.6 5.8 3.3 11.6 4.9 17.4 8.2 2.8 16.2 8 20 16.1 4.1 8.2 2.5 18.2-2.7 25.6 6.5 2.2 12.7 5.9 16.4 11.8 3.6 5.4 4.4 12.5 2.4 18.6-2.1 7-7.1 12.6-12.5 17.3 1.5 6.6 4 13 5 19.7 0 5.2-7.6 7.1-10 2.4-2.2-5.1-3-10.6-4.7-15.8-2.6 1.4-5.3 2.6-8 3.8 1.4 4.9 3 9.7 4.1 14.7.7 3-1.6 6.3-4.8 6.5-2.6.2-4.9-1.7-5.6-4-1.5-4.6-2.7-9.3-4.1-13.9-4 .8-8.1 1.9-12.3 1.8-4.6.1-8.9-3.9-8.8-8.5-.2-3.7 2.3-7.1 5.7-8.4 2.2-.8 4.5-1 6.7-1.3-6.5-22.9-13-45.7-19.5-68.6-3.9 1.5-8.4 3.9-12.4 1.5-5.4-2.6-6.2-10.6-1.6-14.3 4.2-3.3 9.7-4.5 14.8-5.9l-3.6-13.5c-23 1.2-46.2.1-69-3.2-21.7-3.2-43.2-8.3-63.4-17-13-5.8-25.8-13-35.4-23.7-7.3-8-12.2-18.7-11.3-29.7.8-10.9 7.1-20.7 15.1-27.9 10.7-9.5 23.9-15.8 37.4-20.5 21.8-7.6 45.1-11.3 68.4-12.8m-2.5 23c-18.8 1.5-37.6 4.5-55.6 10.3-11.7 3.9-23.4 8.8-32.7 17.1-4.6 4.1-8.9 10.2-7 16.6 2.2 7 8.1 12 13.8 16.2 13.1 9.2 28.4 14.7 43.7 19 29.4 8 59.9 10.7 90.3 10 22.3-.7 44.7-3.3 66.2-9.5 13-3.9 26.2-8.9 36.7-17.7 4.6-4 9.2-9.4 8.4-15.9-1.1-6.2-5.7-11.1-10.4-14.9-7.1-6-15.5-10.3-24-14-16.8-7.1-34.7-11.4-52.7-14.2-25.4-3.9-51.2-4.8-76.7-3m71.6 111c1.1 4.2 2.3 8.4 3.4 12.7 3-.1 6.1 0 9.2.1-1.3-4.5-2.6-9-3.8-13.5-3 .2-5.9.5-8.8.7m9.6 30.5c2.4 8.1 4.6 16.3 7 24.4 4.9-2.3 9.8-5.7 12-10.9 1.3-2.9-.1-6.2-2.5-8.1-4.6-3.7-10.7-5-16.5-5.4m11.9 41.7c2.3 7.9 4.5 15.9 6.8 23.9 5.6-2.9 11.2-6.5 14.5-12.1 1.4-2.2 1.6-5.5-.7-7.1-5.7-4.5-13.5-4.9-20.6-4.7z"/>
    <path class="st1" d="M467.4 280.5c23.3-.8 46.3 3.4 68.8 9.3 30.9 7.7 60.9 19.3 88.2 35.9 24.7 15 48.9 32.3 65.6 56.3 11.5 16.3 19.9 34.7 25.1 54 4.2 15 6.5 30.4 8.5 45.8 3.3 26.9 2.7 54.1.2 81.1-2.2 22.8-6 45.6-12.2 67.6-4.6 16-10.3 31.8-18.4 46.4-14.1 25.6-36.3 46.4-62.4 59.7-16 8.3-33.2 14.2-50.8 18.2-16.8 3.9-33.9 5.8-50.9 8-25 2.9-50.3 3.8-75.4 1.2-21.5-2-42.9-5.5-63.8-11-19.6-5.3-38.7-12.8-55.5-24.4-24-16.5-44.6-38.7-56.6-65.4-17.4-37.1-21.1-78.9-19.1-119.3 1.9-39.9 9.6-79.7 24.7-116.8 9.2-23.3 21.8-45.2 36.7-65.4 16.9-22.6 37.8-42.6 62.4-56.5 25.6-14.7 55-24.1 84.9-24.7"/>
    <path class="st0" fill="#B36CFF" d="M450.5 301.7c35.4-3.8 71 2.7 104.9 12.8 19.3 5.7 37.4 14.5 55 24.1 23.9 13.2 46.7 29.9 63 52.1 11.1 15.4 18.9 32.9 23.9 51.1 4.4 16 6.3 32.6 7.9 49.1 2.5 28.1 1.8 56.6-1.8 84.6-2.5 18.8-5.4 37.7-10.9 55.9-7.7 28.8-24.8 55.3-48.4 73.5-13.4 10.2-28.6 17.9-44.3 23.7-37.1 14-77.1 19.8-116.6 19.3-21.5-.5-43-2.9-64-7.7-21.8-4.9-43.4-11.7-63.4-21.8-23.7-12-44-31.1-56.4-54.7-9.9-18.8-16.4-39.3-19.8-60.3-3.2-20.6-3.5-41.7-2.3-62.5 1.4-23.8 5.4-47.3 11.6-70.3 8.2-31.7 21.3-62.3 39.2-89.8 11.7-18.1 26.2-34.5 43.5-47.4 22.8-17.2 50.2-29 78.9-31.7z"/>
    <path class="st1" d="M453.2 366.4c26-7 53.5-8.2 79.9-3.4 30.1 5.8 59.2 17.3 84.8 34.2 12.3 8.3 23.5 18.8 31.2 31.6 10.4 17 15.8 36.6 18.7 56.2 3.1 20.1 1.8 40.6-.5 60.8-2.5 20.4-6.5 40.8-15.2 59.5-2.9 6-6.1 12.1-10.8 16.9-5.3 5.8-11.5 10.8-18.3 14.9-7.2 4.8-15 8.8-21.3 14.7-5.2 4.8-7.8 11.5-9.8 18-3.2 11.4-5.3 23.4-11.3 33.8-2.3 3.9-6.5 7.6-11.3 6.8-5.2-1.5-8.9-6.1-11.2-10.8-2.2-3.8-3.1-8.9-7.3-11-5.1 6-6.8 14.7-13.5 19.6-3.5 3-9.2 3-12.3-.5-6.4-7.2-7-17.3-11.4-25.5-1.4-2.5-4.6-1.4-5.8.6-6.1 8.7-9 19.6-17.4 26.6-5 4.3-13.4 5-18-.1-6.3-7.2-9.2-16.6-12.8-25.3-1.1-2.1-2.1-4.6-4.3-5.7-2.5-.5-4.1 2.2-5.3 3.9-5.8 9.5-9 20.9-17.7 28.3-4.8 4.3-12.3 5.1-17.8 1.6-4.1-2.2-6.6-6.5-8.2-10.8-3.2-8.5-4.9-17.5-8.1-26-3.9-10.4-11.8-18.8-20.9-25-12.4-8.7-27.1-15-36.1-27.8-9.6-13.1-11.8-29.8-12-45.6-.5-24.2 3.2-48.3 8.2-72 7.2-31.2 18.7-62.2 39-87.4 19.9-24 46.5-42.9 76.8-51.1"/>
    <path class="st0" fill="#ededed" d="M652.1 479.8c-3.9-19.6-11.1-39.2-24.3-54.5-19.1-22.2-45.9-36.5-73.7-44.5-22.2-6.5-45.6-8.6-68.5-6-18.5 2-36.9 6-53.9 13.7-14.9 6.7-28.4 16.5-39.4 28.6-10.6 11.7-18.7 25.4-25.3 39.7-8.6 18.5-14.2 38.3-18.4 58.3-4.5 21.4-7.5 43.2-6.2 65.1.4 11 2.8 22.4 9.3 31.5 6.1 8.5 14.9 14.8 23.7 20.3 11.2 7 23.4 13.9 30 25.9 6.4 10.6 7.2 23.3 11 34.9 1 2.9 2.5 6.5 6 7 4.2.1 6.5-4 8.3-7.2 4.8-9.2 8-19.4 14.6-27.5 2.8-3.4 7.3-6.2 11.8-4.9 4.7 1.6 7.9 5.8 10 10.1 3.5 7.6 5.4 15.8 8.5 23.6 1.1 2.6 2.7 5.6 5.7 6.3 3.5.3 5.8-3 7.7-5.5 5.3-8.5 8.7-18.1 14.9-25.9 2.1-2.6 4.9-5 8.3-5.7 4-.8 7.9 2 9.7 5.5 3.7 6.8 4.8 14.5 7.2 21.8.6 1.9 1.8 4.3 4.2 4.3 2.4-.4 3.8-2.6 5-4.4 3.9-6.5 6.9-13.5 11.7-19.4 2.8-3.5 6.8-6 11.3-6.8 2-.5 4 1.2 3.9 3.2-.3 3.8-6 4-5.8 8 .3 3.1 1.9 6 2.9 9 1.4 3.3 2.8 7.2 6.2 8.9 3 .9 5.4-1.8 6.5-4.3 2.5-5.6 3.4-11.7 5-17.6 2.6-9.8 6.2-19.6 12.9-27.3 4.3-5.2 10.2-8.7 16-12 8.6-5.1 17.4-10.3 24.1-17.8 6.3-7 10.4-15.6 13.4-24.4 6.7-20.7 9.2-42.6 9.7-64.3-.3-15.6-1.2-30.8-4-45.7z"/>
    <path class="st1" d="M455.5 453.6c11.2-2.2 23.1 1.7 31.5 9.2 9 8 14.5 19.3 17.1 30.9 4.6 20.8.8 43.1-9.9 61.5-7.3 12.4-18.5 23.2-32.6 27.1-9.7 2.8-20.4 1.2-28.9-4-10.5-6.3-17.6-17.1-21.4-28.5-6.5-19.7-4.5-41.7 3.9-60.6 7.5-16.7 21.6-32.1 40.3-35.6"/>
    <path class="st1" d="M591.4 483.6c7.4-1.8 15.4 1 20.7 6.3 7.9 7.6 11.5 18.6 13.1 29.2 2 15.9-.2 32.7-8.2 46.7-4.4 7.7-11.1 14.8-20 16.8-7.8 2-16-1.7-21.3-7.4-7.5-8.2-10.9-19.3-12.2-30.1-1.5-16 1.1-32.9 9.7-46.7 4.3-6.8 10.5-12.6 18.2-14.8"/>
    <path class="st1" d="M524.5 573.8c3.5-1.8 7.9-.5 10.1 2.6 3.9 5.2 4.8 11.9 6 18.1 1.5 9.2 4.2 18.1 5 27.4.4 4.2-.1 8.7-2.5 12.3-2.1 3.2-6.5 4.9-10.1 3.5-4.8-1.3-7.8-6.4-13-6.7-6.9-.3-13.2 3.6-20.1 3.8-4.5.1-9.2-2.6-10.7-7-1.9-5.3.5-10.9 3.2-15.5 6-9.8 13.2-18.8 20.2-27.9 3.4-4 7-8.4 11.9-10.6"/>
    <path class="st0" fill="#ededed" d="M447.3 466.8c7.6-3.6 16.6-5 24.6-1.7 10.8 4.4 17.7 15 21 25.8 5.7 19 3 40.2-6.4 57.6-5.8 10.4-14.6 19.9-26.2 23.7-4.4 1.5-9.2 1.4-13.8 1.1 12-2.6 21.6-11.5 28.3-21.4 11.4-17.5 14.2-40.4 7.3-60.1-3.5-10-10.8-19.1-20.8-23.2-4.4-2-9.3-2-14-1.8z"/>
    <path class="st0" fill="#ededed" d="M585.9 498.3c3.8-3.7 9.7-6.5 15-4.1 6.1 2.9 9.5 9.3 11.7 15.3 4.7 14 4.1 29.6-.7 43.5-2.7 7.1-6.7 14.5-13.5 18.3-3 1.8-6.7 1.7-10 1 8.2-1.6 14.2-8.5 17.1-16 4.3-10.8 5.5-22.7 4.3-34.3-1.1-8.1-3.9-17.2-11.5-21.5-3.6-2.3-8.1-2.3-12.4-2.2z"/>
    <path class="st0" fill="#ededed" d="M520.3 586.6c2.2-2.1 5-6 8.5-4.4 3.2 3 3.5 7.8 4.4 11.8 1.5 9.4 4.3 18.5 5.1 28 0 2.5.8 6.2-2.2 7.4-2.6.6-4.7-1.3-6.7-2.6 2.5-2.2 3.8-5.5 3.7-8.8-.1-6.8-1.7-13.4-3.3-19.9-1.3-4.9-4.1-10.3-9.5-11.5z"/>
    <path class="st0" d="M650.2 236.8c-12-13-26.1-24.1-41.8-32.2-2.4-1-5.1-4.1-7.6-1.9-9.4 7.2-18.3 15.1-26.4 23.8.4-11.5.9-23 1.5-34.5.4-2.2-1.3-3.8-3.2-4.4-6.1-2.3-12.5-3.9-18.9-5.5-2.2-.9-4.2.6-5.1 2.5-3.4 6.3-5.8 13-8.6 19.6-.3-7.1.1-14.1-.2-21.2 0-2-2.4-2.1-3.8-2.1-15.4-.6-30.8 1-45.9 3.5-20.4 3.7-40.6 9.3-59.3 18.5-13.6 6.5-26.8 14-38.6 23.3-20.2 15.7-36.3 36.9-45.1 61-6.4 18.1-8.7 37.6-7.3 56.7.5 3.5.5 7.5 2.7 10.5 2 .9 3.7-.5 5-1.8 9-8.7 18.2-17.4 28.6-24.4 18-12.2 37.8-21.8 58.5-28.5 5.3-1.5 10.6-3.2 16.2-3.4 14.9 6.7 28.5 16.2 41.1 26.6 11.9 9.7 21.9 21.4 31.1 33.7 20.4-.4 40.6 3.8 60.1 9.3 1.3-4.2 1.4-8.6 2.2-12.9 1.6-9.3 3.7-18.7 7.2-27.5 11.9-31.1 34-58.1 61.9-76.1 1.1-.9 3-1.7 2.8-3.4-1.7-3.5-4.6-6.3-7.1-9.2z"/>
    <path class="st1" fill="#FF3CAE" d="M508.4 208c.4-3.3.7-8.1 4.7-9 5.1-.6 10.3-.1 15.4 0 1.7 9.9 3.3 19.9 4.9 29.8.3 2 1.2 4.6 3.6 4.5 2 .3 3.1-1.8 3.9-3.3 4.1-9.3 8.2-18.7 12.4-28 3.8.7 7.7 1.5 11.5 2.5-.4 12.2-.8 24.4-1.2 36.5.1 2-.5 4.9 1.8 6 1.9 1.3 3.9-.3 5.2-1.5 10.2-9.2 20.5-18.4 30.7-27.6 7 3.5 13.7 7.7 20.2 12.2-1 5.8-7.6 7.5-10.4 12.1-.9 1.6 1.2 3.4 2.8 2.6 4.8-2.7 8.5-7.6 14.2-8.4 3.9.9 6.2 4.6 9.2 7.1-23.8 18.6-42.4 43.7-54.3 71.5-4.9 11.4-8.5 23.5-10.1 35.8-14.7-3.2-29.6-5.1-44.6-5.2-9.5-12-20.6-22.6-32-32.7-15.4-13.4-32.5-24.9-51.6-32.4-10-3.8-20.8-6.6-31.6-6-6.9.5-14.2 2.5-19.5 7.3-2.5 2.1-.9 6.6 2.4 6.8 2.4-.2 4.5-1.8 6.8-2.6 5-1.9 10.7-3.3 15.9-1.5 2.1.8 5.1 2.9 3.7 5.5-3 1.7-6.4 2.5-9.5 3.9-22.6 9.2-43.4 22.6-60.7 39.8-1.8-22.6 5-45.4 17.4-64.2 15.6-23.7 39-41.6 64.6-53.2 15.7-7.2 32.5-12.1 49.6-14.9 5.8-1.1 11.7 2.9 13.6 8.3 3.2 8.5 3.3 17.8 4.2 26.7 2.7 31.4 8 62.9 19.9 92.3.6 2.1 3.4 3.5 5.1 1.8 1.6-1.3.8-3.5.3-5.2-9.2-25.2-14.4-51.8-16.8-78.4-1.2-12.9-2.6-25.9-1.7-38.9m49.8 60.9c-2.1 2.3-3 5.4-4.3 8.2-3.3 8.4-5.6 18-3 26.9 1 2.4 4 .7 4.6-1.2 5-10.4 6.4-22.4 5.3-33.9-.5-.1-1.5-.4-2-.5l-.6.5z"/>
</svg>
