<svg xmlns="http://www.w3.org/2000/svg" viewBox="0 0 1000 1000">
  <title>Pizza Ninjas #807</title>
  <path class="st0" d="M744.7 933.3c-.6-27.6-2.8-55.3-8.6-82.4-5.3-25.5-14.6-50.6-30.3-71.7-11.4-15.5-25.7-28.8-42.2-38.8-28.8-17.5-62.2-25.7-95.4-29.5-50.1-5.7-100.8-8.8-151.1-3.4-19.6 2.5-39.2 5.5-58.5 10.2-33.3 8-65.9 21.5-92 44-22.2 18.7-37.9 44.3-47.1 71.7-6.9 21.9-11.1 44.7-12.4 67.6-2.1 33-3.1 66-3.2 99h540.3c.8-22.2.6-44.5.5-66.7z"/>
  <path class="st1" fill="#ededed" d="M431.9 726.2c43-2.9 86.4-1.8 129.1 4.1 22.8 3.1 45.4 7.8 67 15.7 24.9 9.6 48.6 24.5 64.3 46.4 12.1 16.9 19.5 36.7 24 56.9 5.9 26.7 7.2 54.2 7.7 81.5.7 23 .1 46-.7 69h-96.8c.6-29.2 1.1-58.9-6.2-87.4-4.3-16.8-11.7-33.3-24.1-45.8-3.4-3.3-6.8-7.1-11.4-8.8-3.7-1.5-8.1 2.1-7.2 6 1 4.2 4.8 6.7 7.2 10.1 10.3 13.1 17.2 28.8 20.5 45.1 2.9 13.4 3.9 27.1 4.3 40.8.2 13.4.1 26.7-1 40H360.2c-1.6-22.3-1.6-44.7 1-66.9 2.6-21.4 9.7-42.7 23.4-59.5 2.2-2.9 5.3-5.2 6.6-8.7 1.1-2.7-.5-5.9-3.2-6.8-3-1.2-6.1.8-8.4 2.5-13.8 11.1-23.1 26.9-28.4 43.6-10 30.9-9.2 63.8-8.7 95.9H227.9c-1.1-42.1-1.3-84.3 3.5-126.2 2.7-20.5 7.2-41.1 17-59.4 14.7-28.3 40.3-49.7 68.9-62.9 17.4-8.3 36.1-13.3 54.9-17.3 19.8-4.1 39.8-6.3 59.7-7.9z"/>
  <path class="st0" d="M438.7 722.7c5.3-2 10.5-4.7 16.2-4.8 10.3-.5 20.7.4 31 .1 6.3-.1 12.7-.4 19-.1 6.3.2 11.9 3.3 17.7 5.4 18.1 7.5 36.6 14.1 54.2 22.8 16.5 8.2 32.6 17.5 47.2 28.8 23.9 18 43.7 41.6 56.2 68.9 12.7 26.4 17.8 55.7 19.1 84.8.8 23.8 0 47.7-.8 71.5h-37.9c.9-24.6 1.7-49.3.7-74-.9-16.5-3-33-7.2-49-5.3-19.5-13.9-38.1-25.4-54.7-17.5-24.7-42.6-42.6-68.4-57.7-25.4-14.7-52.3-26.9-80.3-35.9-13.4 4.1-26.4 9.4-39.3 14.9-18.7 8.4-37 17.6-54.1 28.8-24.3 15.2-47 34.4-61.7 59.4-9.9 16.7-17.2 34.9-21.3 53.9-3.9 18.8-5.6 38-5.5 57.2-.2 19 .4 38 1.1 57h-37.9c-.9-35.7-3.2-71.7 3-107 5.7-34.4 21-67.4 44.4-93.2 22.8-25.5 52.5-43.6 83.2-57.9 15.5-7 31.3-12.8 46.8-19.2z"/>
  <path class="st1" d="M467.4 280.5c23.3-.8 46.3 3.4 68.8 9.3 30.9 7.7 60.9 19.3 88.2 35.9 24.7 15 48.9 32.3 65.6 56.3 11.5 16.3 19.9 34.7 25.1 54 4.2 15 6.5 30.4 8.5 45.8 3.3 26.9 2.7 54.1.2 81.1-2.2 22.8-6 45.6-12.2 67.6-4.6 16-10.3 31.8-18.4 46.4-14.1 25.6-36.3 46.4-62.4 59.7-16 8.3-33.2 14.2-50.8 18.2-16.8 3.9-33.9 5.8-50.9 8-25 2.9-50.3 3.8-75.4 1.2-21.5-2-42.9-5.5-63.8-11-19.6-5.3-38.7-12.8-55.5-24.4-24-16.5-44.6-38.7-56.6-65.4-17.4-37.1-21.1-78.9-19.1-119.3 1.9-39.9 9.6-79.7 24.7-116.8 9.2-23.3 21.8-45.2 36.7-65.4 16.9-22.6 37.8-42.6 62.4-56.5 25.6-14.7 55-24.1 84.9-24.7"/>
  <path class="st0" fill="#EDEDED" d="M450.5 301.7c35.4-3.8 71 2.7 104.9 12.8 19.3 5.7 37.4 14.5 55 24.1 23.9 13.2 46.7 29.9 63 52.1 11.1 15.4 18.9 32.9 23.9 51.1 4.4 16 6.3 32.6 7.9 49.1 2.5 28.1 1.8 56.6-1.8 84.6-2.5 18.8-5.4 37.7-10.9 55.9-7.7 28.8-24.8 55.3-48.4 73.5-13.4 10.2-28.6 17.9-44.3 23.7-37.1 14-77.1 19.8-116.6 19.3-21.5-.5-43-2.9-64-7.7-21.8-4.9-43.4-11.7-63.4-21.8-23.7-12-44-31.1-56.4-54.7-9.9-18.8-16.4-39.3-19.8-60.3-3.2-20.6-3.5-41.7-2.3-62.5 1.4-23.8 5.4-47.3 11.6-70.3 8.2-31.7 21.3-62.3 39.2-89.8 11.7-18.1 26.2-34.5 43.5-47.4 22.8-17.2 50.2-29 78.9-31.7z"/>
  <path class="st3" d="M666.6 495.2c-4.3-15.2-11.4-29.6-19.9-42.9-8.2-12.4-18-23.9-29.8-33.1-10.8-8.5-22.9-15.3-35.7-20.5-19.8-8.1-40.9-13.1-62.3-13.6-51.6-1.7-102.8 21.4-137.5 59.4-21.2 23.2-34.5 53-39.4 83.8-3.2 20-3.9 40.5-1.4 60.6 2.5 21.1 8.1 42 18.3 60.8 12.3 22.6 29.3 43 51 57 2.5 1.5 5.5 3.8 8.6 2.3 4-1.4 4.2-7.4.7-9.5-12.6-9.2-25.2-19.1-33.5-32.6-1-1.5-1.4-3.2-1.6-4.9 4.2.3 7.9 2.3 11.8 3.5 19.9 6.4 40.6 10.2 61.2 13.7 20.7 3.7 41.7 4.5 62.6 4.8 24 .2 48-1.9 71.8-5.7 11.5-1.7 22.7-5 34-7.6-1.1 3.5-3.9 6-6.3 8.7-5 5.2-10.7 9.6-16.6 13.6-2.7 1.6-4.2 5.4-2.1 8.1 1.9 2.8 5.8 2.8 8.3.9 12.4-7.9 22.8-18.7 31.8-30.2 9.8-12.4 16.7-26.8 22.7-41.3 8.7-22.8 12-47.3 12.2-71.5.3-21.5-2.5-43.1-8.9-63.8zm-270.3-48.7c12.5-13.4 27.9-23.8 44.1-32.1 20.5-10.5 43.2-16.3 66.1-17.6 17.8-.9 35.8 1.4 52.9 6.6 19.3 5.7 38.1 14.5 53.4 27.8 11.7 10 21.1 22.4 27.9 36.1 2.1 4.1 3.6 9.8.1 13.6-4.5 4.2-11.1 3.9-16.8 4.9-25.3 2.4-50.7 4-76.1 3.8-41.5-.7-83.2-3.3-124-11.4-7.8-1.6-15.7-3.1-23.4-5-4.4-1.1-9.2-3.6-10.6-8.3-2-6.8 2.1-13.5 6.4-18.4z"/>
  <path class="st0" fill="#ffd400" d="M364.4 494.4c2.2-4.6 5.3-9.7 10.6-11 5.7-1.2 11.4.7 17 1.6 19.5 4.3 39.1 8.1 58.9 10.7 23.8 3.9 48 5.2 72.1 6.5 15 .8 29.9.6 44.9.1 24.8-.1 49.6-2.4 74.2-6.2 2.5-.4 5-.5 7.5-.2-1 .7-2 1.3-3.1 1.8-47.7 18.2-95.3 36.5-143 54.8-1.7.8-3.6.4-5.4.1-24.3-4.4-48.7-8.7-73-13-3.6-.8-7.6-.7-10.7-2.9-15-10.3-30-20.7-44.9-31.1-2.2-1.6-4.6-3-6.6-4.9-.7-2.2.7-4.3 1.5-6.3z"/>
  <path class="st0" fill="#ffd400" d="M651.3 513.2c2.3-.6 4.6-2.3 7.1-1.6 1.3 3 1.5 6.4 2.1 9.6 1.4 10.5 3 21.1 3.4 31.7.4 20.2-.6 40.7-6.4 60.2-2.4 7.8-4.9 15.5-8.6 22.7-2.6 4.8-5.4 9.8-10 13-6.4 4.4-13.8 6.8-21.2 8.9-29.5 8-60.1 12.4-90.7 12.1-23.8.4-47.6-1-71.1-5-22.9-3.7-45.8-8.9-67.1-18.6-9.6-4.3-19.4-9.8-25.3-18.8-5.9-9.1-8.1-20-10-30.5-3.3-21.4-3.2-43.3.2-64.7.9-4.9 1.5-9.9 3.2-14.5 15.9 9.8 31.1 20.7 46.7 31.1-4.3 15.6-2.7 32.9 5.6 46.9 7.3 12.7 20.1 22.2 34.5 25.2 14.9 3.4 30.9-.5 43.4-9 15.5-10.5 25.7-28 27.8-46.5 45.4-17.4 90.9-34.8 136.4-52.2m-86.4 55.9c-2.6.4-5.5 1.3-6.6 3.9-1.5 2.7 0 6.3 2.7 7.5 2.3 1.2 4.9.3 7.3 0 2.4 7.2 6.3 13.9 12.1 18.9 7.1 6.2 17.1 9.5 26.5 7.3 9.4-2 17.2-8.9 21.5-17.4 3.3-6.4 4.6-13.6 4.7-20.7 3.2-.6 7.2-2.1 7.5-5.9.6-4.1-3.8-7.3-7.6-6.3-22.7 4.3-45.3 8.6-68.1 12.7z"/>
  <path class="st1" fill="#ededed" d="M432.4 567.5c2-.5 4.3-1.5 6.4-.6 3.1 1 4.7 5 3 7.8-1.6 3.1-5.5 3.4-8.5 4.5-4.3 1-8.5 3.3-13 3.4-5-.1-6.9-7.3-2.8-10 4.7-2.4 10-3.3 14.9-5.1z"/>
  <path class="st1" fill="#ededed" d="M445.4 582.1c3-1 6.8.8 7.4 4.1.8 3.1-1.6 6-4.5 6.8-5.9 2-11.7 4-17.7 5.8-3.3 1.2-7.5-1.1-7.5-4.8-.4-3 2-5.4 4.6-6.2 5.9-1.9 11.7-3.9 17.7-5.7z"/>
  <path class="st2" fill="#fff" d="M580.2 578.4c13.6-2.7 27.2-5.1 40.8-7.6 0 8-3.4 16.4-10 21.3-4.8 3.6-11.5 4.4-17 1.9-6.7-2.8-11.2-9-13.8-15.6z"/>
  <path class="st0" d="M498 284.9c-14.4-45.9-29-91.7-43.2-137.7-1.2-3.6-5.8-5.4-9.1-3.5-2.3 1.1-3.2 3.6-3.9 5.9-2.2 7.4-4.6 14.8-6.8 22.3-6.5-5.8-13-11.6-19.4-17.4-2-1.8-4.4-3.8-7.3-3.2-2.9.4-4.5 3.2-5.2 5.8-3 9.9-5.9 19.8-8.8 29.6-4.7-4.6-9.5-9.1-14.2-13.7-1.7-1.6-3.6-3.3-6-3.5-3.6-.4-6.9 2.4-7.5 5.9-1.3 6.6-2.3 13.3-3.5 19.9-9.1-6.7-18.1-13.5-27.1-20.3-2-1.4-4.4-2.8-6.9-1.9-2.7.6-4.3 3.3-4.5 6-.8 9.7-1.5 19.4-2.3 29-6.9-6-13.8-11.8-20.6-17.8-1.9-1.6-4-3.5-6.7-3.6-4.2-.2-8.2 4-7.2 8.2 1 3.2 2.9 6 4.4 8.9l70.5 130.5c1.5 2.6 2.4 6.3 5.6 7.3 3.1 1 6.5 1.2 9.7 1.6 29.9 2.7 60.3-5.1 86.1-20.2 12.3-7.3 23.6-16.2 32.9-27.1 2.6-3 2.4-7.4 1-11z"/>
  <path class="st1" fill="#959898" d="M445.9 182.1c.5-1.9 1.4-3.5 2.4-5.1 1.2 1.6 2 3.5 2.5 5.5 8.6 32.6 17.2 65.2 25.7 97.8 1 4.6 3.1 10 0 14.2-5.6 7.3-13.3 12.9-21.3 17.4-6.1-19.3-12.2-38.6-18.4-57.9-2.1-6.8-4-13.8-4.1-20.9.2-7.2 2.5-14.1 4.4-20.9 2.9-10.1 5.9-20.1 8.8-30.1z"/>
  <path class="st1" fill="#959898" d="M376.4 193.9c.5-1.4.2-4 2.3-4.1 6.9 5.9 13.1 12.5 19.8 18.7 8.2 8.1 17.3 15.5 23.4 25.4 4.1 6.6 6.1 14.1 8.5 21.4 6.3 19.8 12.6 39.7 18.9 59.5-14.9 7.2-31 12-47.4 14.2-10.2-21.9-20.8-43.6-30.1-65.9-2.6-6.4-4.9-13.4-3.6-20.3 2.5-16.3 5.4-32.5 8.2-48.9"/>
  <path class="st1" fill="#959898" d="M319 222.9c4 2.3 7.2 5.6 10.7 8.5 8 6.9 16.1 13.8 24 21 4.8 4.2 7.8 10 10.6 15.6 10.2 20.6 20.8 41.1 30.6 61.9-4.9.2-9.9.7-14.8-.2-3.3-.9-4.9-4.3-6.6-7.1-17.6-31.7-35.2-63.5-52.8-95.2-.7-1.5-1.3-2.9-1.7-4.5z"/>
  <path class="st0" d="M398.2 251.2c1.6-.6 2.9.6 4.1 1.5 6.9 5.5 13.7 11 20.7 16.4 1.2.9 2.5 2.2 1.9 3.9-1.8 8.9-3.7 17.7-5.7 26.5-.3 2.2-2.9 3.9-4.9 2.3-6.5-4.5-12.8-9.4-19.3-14-1.8-1.4-4.5-2.9-3.6-5.6 1.5-9.1 3.2-18.2 4.7-27.3.4-1.2.5-3.2 2.1-3.7"/>
  <path class="st2" fill="#ededed" d="M418.4 274.7c-.7.9-2 1.1-2.9.4l-14.8-11.4c-.9-.7-1.1-2-.4-2.9.7-.9 2-1.1 2.9-.4l14.8 11.4c1 .7 1.1 2 .4 2.9z"/>
</svg>
