<svg xmlns="http://www.w3.org/2000/svg" viewBox="0 0 1000 1000">
    <title>Pizza Ninjas #874</title>
    <path d="M485.7 915.3c-37.7-37.8-78.2-72.6-118.6-107.5-30.8-26-61.7-51.9-94-76.1 3.7-4.9 7-10.1 10.4-15.2 1.9-3.1 4.1-6.1 5-9.6.7-2.3-.5-4.8-2.3-6.2-12.1-10-24.2-19.9-36.8-29.1-2.5-2.3-6.9-2.3-8.8.8-5 8.2-10.1 16.3-15.3 24.5-31.8-22.5-64.8-43.3-98.3-63.1-4.1-2.3-8.1-4.6-12.2-6.7-2.9-1.6-6.4-.2-8.4 2.1-3.2 3.6-5.6 7.8-8.2 11.9-6.8 11.2-13.8 22.2-21.2 32.9-1.9 2.9-4.2 6.4-2.9 10 1.5 3.9 5.9 4.9 9.1 6.8 35.9 19.2 70.9 39.9 105.6 61.2-3.8 5.7-7.8 11.3-11.8 17-1.4 2.1-3 4.3-2.8 7 .3 3.2 2.9 5.6 5.1 7.7 7.3 6.5 16 11.2 23.6 17.2 3.5 2.4 6.6 5.8 11 6.5 3.6.3 6.4-2.5 8.6-5 5.1-6.1 9.3-12.7 13.9-19.2 35.2 24.4 68.6 51.2 101 79.3 22.5 19.8 44.2 40.5 65.9 61.1 12.5 12.1 25.1 24.1 37.2 36.7 2.6 2.8 7.3 2.7 10 .1 12-10.7 23.8-21.5 35.7-32.2 1.8-1.6 3.5-3.7 3.4-6.3 0-2.7-2.1-4.8-3.9-6.6z"/>
    <path fill="#EDEDED" d="M117.2 646.5c15.2 8.8 30.3 17.9 45.3 27 17.6 10.9 34.7 22.6 51.9 34.2 1 .6 1.8 1.4 2.8 2.2-6.2 9.5-12.4 19-18.9 28.2-17.5-11.7-35.1-23.4-53.2-34.1-15.1-8.9-30-18.2-45.3-26.8 5.8-10.2 11.5-20.5 17.4-30.7z"/>
    <path fill="#EDEDED" d="M245 770.5c6-9.2 12.1-18.3 18.9-27 57.4 42.4 111.5 89.1 163.7 137.8 14.1 13.2 28 26.8 42.1 40.1-7.5 7.9-15.3 15.5-22.9 23.3-20.4-20.5-41.3-40.4-62.5-60-44.1-40.9-90.6-79-139.3-114.2z"/>
    <path fill="#EDEDED" d="M193.2 772.8c18.2-26.4 36.5-52.8 54.8-79.2l20.1 14.7c-18.1 26.4-36.2 52.9-54.4 79.3-6.8-5-13.6-9.8-20.5-14.8z"/>
    <path d="M719.2 908.5c-2.2-23.9-5.6-48.1-15.5-70.2-12.5-28.1-33.5-51.5-57.2-70.7-26.6-21.4-56.9-38.4-89.6-48.5-19.6-6.1-40-9.2-60.5-9.6-36.1-1.4-71.9 7.4-104.7 22.1-31.9 14.6-62.2 32.6-89.6 54.6-15.9 12.6-31 26.7-42 43.9-9.3 14.1-13.9 30.8-17.6 47.1-8.8 40.4-4.8 82.2.4 122.8h473.3c3.1-30.4 5.2-61 3-91.5z"/>
    <path d="M422.7 736.7c19.2-7.6 39.7-11.8 60.3-12.3 17.6-.4 35.4.2 52.6 3.9 20.4 4.1 39.9 11.8 57.9 22.1 12.8 7.4 25.4 15 37.3 23.7 21.5 16.4 41 36.3 53.6 60.4 9.8 17.8 15.4 37.5 19 57.3 4.8 36.1.3 72.6-7 108H264.5c-6.5-29.6-10.6-59.7-11.5-90 .1-18.6 2-37.5 8.9-54.9 5.7-14.5 15-27.3 25.8-38.5 13.8-14.2 30.3-25.5 47.1-35.9 28-16.8 57.3-32 87.9-43.8z"/>
    <path d="M713.9 876c-1-8.5-3.2-16.8-6.2-24.8-2.1-6.9-4.6-13.9-4-21.2.7-11 6-21.1 6.9-32.1.6-6.9-2.3-13.6-6.6-18.9-7.9-9.8-17.9-17.6-27.9-25-15.7-11.4-32.6-21.3-49.9-30.2-9.7-4.7-19.5-10-30.3-11.3-5.9-.5-12.8.8-16.5 5.8-2.1 2.3-3.5 6.1-7.3 6-5.3 0-10.3-3.3-15.6-1.6-3.9.7-8 5.2-5.1 9.1 4.1 2.4 9.1 3.1 12.6 6.3 3.1 2.7 3.9 7 4 10.9.1 7.4-1.1 14.8-2.4 22.1-3.1 15.9-6.1 31.9-9.8 47.7-5.4 25.8-10.5 51.7-16.5 77.3-1.6 6.9-3.5 13.7-6 20.3-1.1 2.7-2.8 5.9-6.1 6.2-3.4.2-5.4-3.2-6.6-5.9-2.8-6.6-4.6-13.6-6.5-20.5-13.5-51.9-32.3-102.6-58.8-149.3-2.2-3.9-5.1-8.8-2.7-13.2 2.4-5.1 8.2-7.1 13.4-7.8 3.4-.7 7.4-.4 10.1-2.9 2.6-2.1 2.4-6.6-.2-8.6-3.7-3.2-9-3.3-13.7-2.7-7.1 1.3-14.5 3-21.7 1.2-7-1.9-11.4-8.7-18.5-10.5-6.6-1.8-13.5-.8-20.1.7-14.8 3.7-28.8 10-42.7 16.1-28 13-55.1 27.8-80 46.1-9.3 6.9-18.7 13.9-26.8 22.2-4.3 4.5-8.2 10.2-7.9 16.7.7 10.4 8.8 18.5 9.4 28.9.2 8.7-4.7 16.5-5.4 25.1-.1 2.6.8 6.3 3.9 6.8 3.8.5 6.3-3 7.6-6.1 2.7-6.3 6.2-13 12.5-16.3 5.7-3.1 12.6-1.7 18.2 1 7.3 3.7 13 9.6 18.7 15.3 10.8 11.7 21.2 23.8 30 37.1 17 26 23.8 57.4 23.6 88.2 0 5.4-.2 10.7-1.1 16H623.3c-1.2-8.9 3-17.2 6.6-25.1 14.5-29.3 30.4-57.9 44.9-87.2 3.2-6 5.6-12.7 11-17.1 2.7-2.4 6.9-2.2 9.5.1 4.9 4 5.5 10.7 7.8 16.2 1.2 2.7 5.1 3.2 7.2 1.2 3.4-3 4-8.1 3.6-12.3z"/>
    <path fill="#6089FF" d="M389.6 726.3c9-2.8 18.7-5.6 28.1-3 8.3 2.9 13.8 10.4 18.6 17.3 7.2 10.5 13.2 21.7 19.4 32.7 15.4 27.8 27.5 57.3 37.8 87.3 8.8 25.6 14.6 52.1 19.3 78.7 3.7 20.1 6.9 40.3 8 60.7h-111c-11.8-28.6-25.2-56.8-42-82.8-15.5-24.5-34.1-46.9-54.2-67.7-12.8-13.3-27.8-24.2-41.6-36.5-3-2.8-6.2-5.9-6.8-10.1-.5-4 2.3-7.3 4.9-10 7.1-7 15.6-12.5 23.8-18.2 14.8-10.3 30.3-19.4 46.2-27.8 15.7-8.5 32.4-15.1 49.5-20.6z"/>
    <path fill="#6089FF" d="M587.5 734.4c2.6-4.2 8-5 12.5-4.3 8.7 1.4 16.7 5.5 24.4 9.6 16.8 9.2 33 19.3 48.5 30.5 7.8 6.1 16.6 11.7 21.2 20.8 4.2 8.9 1.4 19-1.1 28-8.8 29.5-22.2 57.3-36.6 84.4-17.8 32.8-35.6 65.6-56.3 96.7h-66.8c-2.3-14.9-2.6-30.2.2-45 3.3-17.5 8.2-34.6 12.6-51.9 8-29.4 14.7-59 21.6-88.7 5-20.5 10-41 14.2-61.7 1.4-6.3 2.3-12.8 5.6-18.4z"/>
    <path d="M778.8 374c-.2-13.1-1.4-26.4-5.9-38.9-2.7-7.2-9.7-13.7-17.9-12.7-8.8 1.7-17.6 3.8-26.3 6.1-30.4 7.8-59 21.1-86.8 35.4-10.4 5.3-21.1 10.9-33 11.7-12.4 1-24.1-3.8-35.9-6.8-12.9-3.3-26-5.7-39.2-7.2-21.9-2.6-44.1-1.6-66 .7-13.9 1.5-28 1.4-41.7-1.6-19.8-4.9-36.9-16.3-53.8-27.2-21.7-14-44.4-26.5-68.1-36.8-11.2-4.8-22.7-9.6-34.8-11.9-4.4-.7-8.9-1.3-13.3-.5-5.9.5-10.5 5-12.4 10.4-4.7 13.3-5.3 27.5-7.3 41.4-1.6 11.1-2.9 22.2-4 33.4-2.7 32.1-5.2 64.3-5.4 96.5-.4 25.6 1.5 51.2 5.4 76.5 5.1 32.9 13.8 65.8 31.3 94.4 18.1 29.9 42.6 56 71.8 75.2 28.6 18.7 60.9 31.1 94.2 38.1 25.6 5.4 51.8 6.6 77.9 6.6 36.5-.3 73.5-5.4 107.3-19.7 40.1-17.8 73.8-48.1 99.5-83.4 17.6-24.9 30.7-52.6 40.6-81.3 13.1-38.5 19.8-79 23.1-119.5 2.4-26.2 1.9-52.6.7-78.9z"/>
    <path fill="#6089FF" d="M751.1 358c-.7-3.4-1.2-7.7-4.6-9.6-4.8-2.5-10.4-1.5-15.5-.8-15.1 2.6-29.7 7.4-44 12.6-16.5 6.2-32.7 13.3-48.2 21.6-5 2.9-10.5 5.4-14 10.3 5.9 3.9 12.4 6.8 18.2 10.7 3.3 2.2 8.2 4.5 7.5 9.3-.5 4.6-6.6 6.2-10 3.4-22.9-15.3-49.1-25-75.8-31.2-39.5-8.9-80.8-10.3-120.8-3.2-20.1 3.6-39.9 9.5-58.1 18.9-2.9 1.7-7.4 1-8.8-2.3-1.6-2.8-.1-6.4 2.5-7.9 6.7-3.9 14-6.5 21.1-9.6-3-5.5-8.3-9.2-13.1-12.9-12.3-9-25.5-16.7-38.8-24.2-24-13.2-49.2-24.6-75.4-32.8-2.8-.9-6.5-1-8.4 1.7-2.1 3-2.8 6.7-3.8 10.2-4 17.4-6 35.1-7.8 52.8-6 52.1-9.8 105-2.8 157.3 4.8 37.2 14.9 74.3 34.7 106.4 16.8 26.8 39.2 50.3 66.1 66.9 14.9 9 30.9 16.1 47.3 21.8 39.8 13.3 82.4 17.8 124.1 13.8 23.9-2.3 47.7-6.6 70.3-14.9 29.8-11 57.8-28 79.7-51.2 21.3-24 39.6-50.9 53-80 14.5-31.9 23.6-66.2 27.5-101 5.8-45.3 3.3-91-2.1-136.1z"/>
    <path fill="#EDEDED" d="M801.4 516.2c-2.2-9-10.2-16.5-19.5-17.6-5.3-.7-10.5.8-15.6 1.7-32.6 8.9-65.2 17.9-97.8 26.7-11.7-16-29.9-27-49.5-29.9-13.4-2.5-27.4-.2-40 4.7-17.5 7-31.9 20.8-40 37.8-16.7-6.1-35.6-6.7-52.4-.6-7.8-18-22.6-32.6-40.6-40-12.9-5.2-27.4-7.5-41.2-4.9-19.3 3-37.1 13.9-48.8 29.6-35.3-9.8-70.6-19.8-105.9-29.7-8.1-2.2-16-4.9-24.3-6.3-8.3-1.5-17.3 1-23.8 6.5-3.9 3.3-6.3 8.7-5.1 13.9 1.2 5.3 6.4 9.6 12 9.1 5.4.1 9.3-5.2 14.8-4.6 5.6.7 11 2.4 16.4 3.9 34.8 9.8 69.7 19.5 104.5 29.3-6.2 19.2-4.4 40.7 5.1 58.5 8.1 15.6 21.9 28.1 38.1 34.8 15.9 6.6 34 7.6 50.5 2.6 16.1-4.8 30.6-15.1 40.3-28.8 10.2-14.4 15.2-32.4 13.7-50 12.5-5.4 27.1-4.8 39.6.2-3 23.8 6.3 48.7 24.1 64.8 13 11.9 30.2 19.1 47.8 19.9 16.6.8 33.5-4.1 47.1-13.8 14.3-10 24.9-25.2 29.5-42.1 3.9-13.9 3.5-29-.9-42.7 31.2-8.5 62.4-17.2 93.6-25.5 7-1.8 10.7 7.3 17.6 6.7 7.5.4 12.5-7.7 10.7-14.2z"/>
    <path fill="#6089ff" d="M408.3 518.3c12.6-2.1 26.1.5 36.8 7.6 12.3 8 20.9 21.5 22.8 36.1 1.5 11.2-.6 22.8-6.3 32.6-6.3 11-16.8 19.5-28.8 23.4-13.3 4.3-28.4 2.9-40.6-3.9-12.2-6.7-21.5-18.5-24.9-32-3.5-13.2-1.5-27.7 5.6-39.3 7.4-13 20.7-22.2 35.4-24.5z"/>
    <path fill="#ff002c" d="M599.2 521.2c12.4-2 25.5.6 36.1 7.5 9.8 6.3 17.4 16 21 27.1 4.6 13.8 3 29.5-4.4 42-7.6 13.3-21.6 22.8-36.8 24.9-10.7 1.6-22-.2-31.5-5.3-13.6-7-23.7-20.5-26.5-35.5-2.8-13.9.4-28.8 8.8-40.2 7.7-10.8 20-18.4 33.3-20.5z"/>
    <path class="st4" d="M509 359c-10.8-13.2-26.8-21.3-43-25.8-20.2-5.2-41.3-6.1-62.1-4.7-7.6.5-15.2 1.9-22.8 2.3-3.6 0-7.6 0-10.6-2.3-2.6-2.4-3-6.2-2.8-9.5.3-5.9 1.2-12 4.2-17.2 2.5-4.4 6.2-7.8 9.9-11.2 7.3-6.6 14.8-13 21.6-20.2 10.3-11 19.5-23.1 26.9-36.3 3.1-5.8 6.2-12.3 5.4-19-1-6.3-5.6-11.2-9.8-15.8-5.1-5.3-10.2-10.5-15.2-15.8-25.7-27.6-51.9-54.8-77.2-82.9-6.3-6.7-11.9-14-19-19.9-4.4-3.8-10.6-3.3-15.9-2-10.6 2.6-20.3 7.7-29.7 13.1-29.2 17.3-52.9 43.2-68.8 73.1-2.4 4.9-4.8 10.5-2.8 16 2.1 6.2 6.9 10.9 11.3 15.7 12.2 12.8 24.3 25.7 36.8 38.1 22.7 24 45.6 47.8 67.5 72.5 5.7 6.8 12.2 13.8 14 22.8 2.2 10.7-2.3 21.3-7.7 30.2-13.7 21.8-32.8 39.6-46.4 61.5-8.7 14.2-15.1 30.3-15.5 47.2-.4 13 3 26.3 11.2 36.6 7.2 9 19.5 13.9 30.9 11.6 8.4-1.7 15.8-7.1 20.6-14.1 7.3-11.1 9.1-25 7.7-38-.3-3.5.1-7.9 3.4-10 2.6-1.8 5.9-.1 7.5 2.2 3.4 4.5 6.9 9.6 12.6 11.3 6.5 1.8 13.5-.5 19-4.2 9-5.8 14.4-15.7 17.5-25.7 3.3-10.3 4.9-21.9 12.3-30.2 6.1-7.4 16.2-12.1 25.8-9.5 9.7 2.3 15.6 11.1 21.9 18.1 6.6 7.8 14.7 14.9 24.9 17.1 9.2 2.4 19.1-.2 26.8-5.5 11.5-7.8 20-20.5 21.2-34.5 1.2-12.6-3.3-25.5-11.6-35.1z"/>
    <path fill="#ededed" d="M296.5 96.7c5-1.8 10.6-.3 14.3 3.5 13.1 12.9 25.3 26.8 38.2 39.9 1.5 1.6 3.5 3.3 3.5 5.7-1.2 2.7-4.1 3.8-6.5 5.1-2.9 1.3-5.7 3.1-8.9 3.4-6-1-11.1-4.8-17-6.3-22.4-7.3-49 9-52.9 32.2-1.7 9.7.8 19.4 4.4 28.4 2 4.8-.7 9.7-3.4 13.6-1.7 2.2-3.3 4.9-6.2 5.6-3.4-.4-6.1-3-8.5-5.3-11.4-12.2-22.9-24.5-34.2-36.8-1.9-2.1-3.9-4.4-4.7-7.1-1-3.5.1-7.3 1.6-10.5 12.5-25.1 32.8-45.7 56.5-60.4 7.5-4.4 15.3-8.6 23.8-11z"/>
    <path fill="#ffd400" d="M299.5 152.8c7.4-1.9 15.4-1.6 22.5 1.1 11.1 4.1 19.9 13.9 22.9 25.4 4.5 16.1-3.6 34.5-18.5 42.1-13.6 7.6-31.8 5-42.9-5.8-11.3-10.5-14.9-28.3-8.2-42.3 4.4-10 13.5-17.7 24.2-20.5z"/>
    <path fill="#ff002c" d="M355.4 154.5c5.1-1.1 9.4 2.9 12.8 6.2 13.1 13.9 26.3 27.7 39.3 41.8 2.4 3 5.7 5.7 6.6 9.6-.5 3.7-4.5 5.1-7.4 6.6-31.4 15.6-60.2 38.8-77.1 70-1.5 2.3-2.8 5.5-5.7 6.2-2.9-.2-4.9-2.9-7-4.8-14.7-15.6-29.5-31.1-44-46.9-2.5-2.7-5.4-6.1-4.3-10.1 1.3-3.8 4-7 7-9.5 3-2.3 6.7-.2 9.5 1.4 9 5.3 19.6 8.8 30 6.6 13.4-2.1 24.9-11.3 31.6-22.8 5.3-9.1 5.5-20.4 3-30.4-1.2-5.1-3.8-9.6-5.4-14.5-.7-1.8.2-3.7 1.6-4.8 2.7-2.4 6.1-3.8 9.5-4.6z"/>
    <path fill="#ff002c" d="M351.3 273.3c4.3-2.7 7.6 2.9 7.5 6.6.5 15.9-6.7 31.2-4.6 47.2 1 6.4 4.1 13.7 10.8 15.9 10.5 3.6 21.4 0 31.9-1.2 16.7-2.1 33.6-1 50.3 1.1 15 2 30.2 6.2 42.5 15.4 8.2 6.2 15.3 15.1 16.4 25.6 1.9 13.6-5.1 28.4-17.7 34.4-6.8 3.4-15.5 2.6-21.2-2.6-9.9-8.8-16.5-21.1-28.1-28-11.1-6.7-25.4-6.4-36.9-.8-10 4.4-17.5 13.2-22.3 22.9-4.5 8.8-6.7 18.5-8.3 28.1-1 5.8-3.5 11.8-8.8 14.8-4 2.5-9.9 2.1-13-1.7-3.6-4.4-2.2-10.8-5.7-15.2-3.2-4.4-9.4-5.9-14.4-4.2-8.9 2.7-14.4 12.2-14.5 21.2-.1 9.6 2.1 19.3.4 28.9-1.2 6.9-4.3 14.1-10.5 18-7.7 5-18.8 2.6-24.6-4.2-5.6-6.5-8.1-15.2-8.4-23.6-.3-14.9 4.9-29.5 13.2-41.8 9.4-14.1 20.3-27.1 31-40.2 7.8-9.8 15.1-20 20.5-31.3 5.7-11.7 6-25.4 2.8-37.8-1.6-6.6-6.4-12.7-5.2-19.8 1.3-6.9 5.5-12.8 9.3-18.6 2.2-3.2 4.2-6.9 7.6-9.1z"/>
    <path fill="#464b4b" d="M413.4 226.5c2.3-1.1 6.2-.8 6.1 2.6-1.1 4.5-3.9 8.2-6.4 11.9-8.4 12.1-18 23.3-29 33.1-2.4 2-4.9 4.3-8.1 4.5-2.7.1-3.9-2.7-4.9-4.8-2.3-6.1-2.9-13.4.6-19.1 2.9-4.7 7.4-8 11.8-11.2 9.4-6.6 19.1-13 29.9-17z"/>
</svg>
