<svg xmlns="http://www.w3.org/2000/svg" viewBox="0 0 1000 1000">
    <title>Pizza Ninjas #962</title>
    <path class="st0" d="M722.1 822c-3.9-5.2-9.7-8.5-14.8-12.3-23.7-16-47.1-32.3-70.9-48.1-23.5-15.8-48.3-30-74.8-40.2-19.7-8.1-40.6-13-61.6-16.3-20.9-3.2-41.9-6.2-63-6.2-20.5-.3-41.1 2.3-60.8 8.3-29.6 9.2-54 30.5-71.8 55.4-20.9 29.2-35.2 62.8-44.5 97.4-9.7 35.8-12.3 73.2-10.8 110.1.2 10 .4 20 1.7 30H690c-9.3-34.2-20.4-67.8-32.2-101.2 13.6 6.4 28.2 11.3 43.2 13 4.8.1 10.6 1.2 14.4-2.4 1.3-3.3.3-6.9 0-10.2-3-21.6-3.9-44.7 4.7-65.2 1.2-3.9 4.8-8.3 2-12.1z"/>
    <path class="st1" fill="#FFD400" d="M376.6 728.3c22.7-7.5 46.7-9.9 70.4-10.3 22.9-.4 45.8 2.5 68 8.2 16.1 4.2 32 10.4 45.7 20.1 12.9 9.1 22.6 21.9 30.5 35.5 14.9 26.5 26.4 54.7 37.2 83.1 17 44.2 29.7 89.9 43.5 135.1h-279c-9.7-46.6-19.1-93.3-28.7-139.9-.5-4.9-5.9-8.4-10.5-6.4-3.9 1.3-5.2 5.8-4.4 9.5 6.1 45.6 12.2 91.3 18.3 136.9h-95.4c-3.4-21.8-5-43.9-5.6-66 .1-18.1 2.1-36.2 5.8-54 6.3-31.4 18.7-61.4 34.9-89 9.9-16.8 22.6-31.8 37.5-44.4 9.2-8.1 20-14.6 31.8-18.4z"/>
    <path class="st1" fill="#FFD400" d="M631.5 791.5c5-2.4 11-1 15.8 1.3 13.2 6.5 24.7 15.9 36.9 24.1 7.9 5.8 16.5 10.7 23.2 17.9-5 19.3-5.6 39.6-4.4 59.5-14.8-2-28.9-7.2-41.9-14.4-7-3.9-14.7-8.3-17.8-16.2-5.4-14.1-10.8-28.2-16.8-42.1-2.8-5.6-2.5-12-1.8-18 .6-4.6 2.3-9.8 6.8-12.1z"/>
    <path class="st0" fill="#ededed" d="M862.1 178.3c9.4-2 19.6 2.9 24.2 11.3 3 5.2 3.6 11.5 2.6 17.4l-75 540c-1.7 8.7-1.1 18.3-5.8 26.1-5 8.3-15.5 12.7-24.9 10.3-9.8-2.2-17.3-11.4-17.7-21.4-.1-7.6 1.7-15 2.5-22.5 24.8-178.2 49.5-356.4 74.3-534.6.6-4.5 1.1-9.2 3-13.5 3.1-6.7 9.5-11.8 16.8-13.1"/>
    <path class="st1" d="M854.6 833.4c-7.2-14.9-21.2-26.1-37.1-30.4 1.2-10 2.8-20 3.9-30.1.9-9.2-1.9-18.6-7.6-26-1.7 8.7-1.1 18.3-5.8 26.1-5 8.3-15.5 12.7-24.9 10.3-9.8-2.2-17.3-11.4-17.7-21.4-.1-7.6 1.7-15 2.5-22.5-8.3 5.6-14.2 14.5-15.8 24.5-1.9 12.4-3.4 24.8-5.2 37.2-7.8-.2-15.9 1.2-22.7 5.3-8.9 5.2-15.1 14-18 23.7-5.7 18.3-7.6 37.8-6.3 56.9.9 12.8 1.7 26 6.9 38 3.7 9.9 11.3 18.3 20.8 22.9.5 6.9 2.7 13.7 7 19.3 7.6 10.6 21.5 16 34.3 13.5 10-1.8 18.7-8.3 23.9-16.9 11.3.7 23.1-3.3 30.9-11.7 6.8-7.4 9.5-18 7.6-27.8 7.9-3.6 13.7-10.6 17.5-18.3 4.2-8.6 4.6-18.6 2.4-27.8 8.1-13.4 10-30.6 3.4-44.8z"/>
    <path class="st2" fill="#FFD400" d="M731 820c5.1-4.2 12.5-5 18.6-2.6 10.6 4.1 17.9 14.1 21.4 24.6 3.8 11.5 4.8 24.5-.1 35.9-1.8 4.3-6.1 8-11 7.3-7.4-1-12.6-7.6-15.1-14.2-1.1-2.8-.8-6.4-3.3-8.5-2.3-2.1-6.3-1.3-7.7 1.5-1.4 2.8-.3 6 .4 8.9 3.5 11.2 12.8 21.8 25.1 23-7.2 7.3-10.6 18.3-8.3 28.3.3 1.6.9 3.2.8 4.8-1.1 3.3-4.7 5-7.9 5.6-7.8.8-15.6-3.4-19.7-9.9-6.2-9.3-7.3-20.8-8.4-31.6-.9-15.6-1.5-31.3 1.3-46.7 2.1-9.9 5.9-20 13.9-26.4z"/>
    <path class="st2" fill="#FFD400" d="M815.5 818c8.7 2.3 16.9 6.9 22.6 14 5 6.1 7.8 14.1 6.9 22-1.2 11.7-10.2 22.5-21.8 25-13.8 2.7-27.3-4.2-38.6-11.4.6-8.2-.1-16.4-2.1-24.4 10.6-5.6 23.3-1.5 32.7 4.6 3.2 2.6 8.9.6 8.7-3.8-.5-5.4-6.8-6.9-10.7-9.3.7-5.6 1.5-11.2 2.3-16.7z"/>
    <path class="st2" fill="#FFD400" d="M772.6 892.3c4.6-3.4 7.6-8.4 9.5-13.8 8.8 5.4 18.5 9.8 28.8 11.3 9.9 1.5 20.2-.9 28.3-6.7 1.4 7.5.9 15.9-3.6 22.4-4.4 6.3-12.2 9.2-19.6 9.8-17.3 1.5-34.4-8.4-43.4-23z"/>
    <path class="st2" fill="#FFD400" d="M763.2 927.6c-3.7-8-2.5-18.3 3.9-24.7 12.2 15.3 32.1 25.4 51.9 22.7.2 8.7-6 16.6-14 19.5-15.7 5.8-35-2.2-41.8-17.5z"/>
    <path class="st2" fill="#FFD400" d="M863.4 191.5c-4 1.3-6.3 5.3-6.6 9.3-25.4 184.1-50.9 368.1-76.3 552.2-.4 3.9-1.7 8-.2 11.8 1.7 4.3 7.1 6.9 11.4 5 3.6-1.3 5.8-5 6.2-8.6 25.7-186 51.4-372.1 77.1-558.1 2-6.9-4.8-14.1-11.6-11.6z"/>
    <path class="st1" d="M778.8 374c-.2-13.1-1.4-26.4-5.9-38.9-2.7-7.2-9.7-13.7-17.9-12.7-8.8 1.7-17.6 3.8-26.3 6.1-30.4 7.8-59 21.1-86.8 35.4-10.4 5.3-21.1 10.9-33 11.7-12.4 1-24.1-3.8-35.9-6.8-12.9-3.3-26-5.7-39.2-7.2-21.9-2.6-44.1-1.6-66 .7-13.9 1.5-28 1.4-41.7-1.6-19.8-4.9-36.9-16.3-53.8-27.2-21.7-14-44.4-26.5-68.1-36.8-11.2-4.8-22.7-9.6-34.8-11.9-4.4-.7-8.9-1.3-13.3-.5-5.9.5-10.5 5-12.4 10.4-4.7 13.3-5.3 27.5-7.3 41.4-1.6 11.1-2.9 22.2-4 33.4-2.7 32.1-5.2 64.3-5.4 96.5-.4 25.6 1.5 51.2 5.4 76.5 5.1 32.9 13.8 65.8 31.3 94.4 18.1 29.9 42.6 56 71.8 75.2 28.6 18.7 60.9 31.1 94.2 38.1 25.6 5.4 51.8 6.6 77.9 6.6 36.5-.3 73.5-5.4 107.3-19.7 40.1-17.8 73.8-48.1 99.5-83.4 17.6-24.9 30.7-52.6 40.6-81.3 13.1-38.5 19.8-79 23.1-119.5 2.4-26.2 1.9-52.6.7-78.9z"/>
    <path class="st0" fill="#FFD400" d="M751.1 358c-.7-3.4-1.2-7.7-4.6-9.6-4.8-2.5-10.4-1.5-15.5-.8-15.1 2.6-29.7 7.4-44 12.6-16.5 6.2-32.7 13.3-48.2 21.6-5 2.9-10.5 5.4-14 10.3 5.9 3.9 12.4 6.8 18.2 10.7 3.3 2.2 8.2 4.5 7.5 9.3-.5 4.6-6.6 6.2-10 3.4-22.9-15.3-49.1-25-75.8-31.2-39.5-8.9-80.8-10.3-120.8-3.2-20.1 3.6-39.9 9.5-58.1 18.9-2.9 1.7-7.4 1-8.8-2.3-1.6-2.8-.1-6.4 2.5-7.9 6.7-3.9 14-6.5 21.1-9.6-3-5.5-8.3-9.2-13.1-12.9-12.3-9-25.5-16.7-38.8-24.2-24-13.2-49.2-24.6-75.4-32.8-2.8-.9-6.5-1-8.4 1.7-2.1 3-2.8 6.7-3.8 10.2-4 17.4-6 35.1-7.8 52.8-6 52.1-9.8 105-2.8 157.3 4.8 37.2 14.9 74.3 34.7 106.4 16.8 26.8 39.2 50.3 66.1 66.9 14.9 9 30.9 16.1 47.3 21.8 39.8 13.3 82.4 17.8 124.1 13.8 23.9-2.3 47.7-6.6 70.3-14.9 29.8-11 57.8-28 79.7-51.2 21.3-24 39.6-50.9 53-80 14.5-31.9 23.6-66.2 27.5-101 5.8-45.3 3.3-91-2.1-136.1z"/>
    <path d="M779.3 389c-.8-18.1-.1-36.8-6.5-54-2.7-7.4-10.3-14-18.7-12.4-17.4 3.7-34.7 8-51.4 14.1-20.2 7.3-39.6 16.5-58.7 26.3-10.3 5.2-20.6 10.9-32.2 12.4-9.5 1.4-19-.9-28-3.5-16.3-4.9-33-8.3-49.9-10.2-22.6-2.7-45.5-1.5-68.1.9-13.1 1.3-26.6 1.1-39.6-1.8-19.8-4.9-36.9-16.3-53.8-27.2-21.7-14.1-44.5-26.6-68.2-36.9-11.2-4.9-22.6-9.7-34.7-11.9-4.4-.7-8.9-1.3-13.3-.5-3.1.6-6.4 1.7-8.6 4-3.6 4.1-5.1 9.5-6.2 14.6-2.8 11.7-3.5 23.7-5.2 35.5-3.2 21.3-4.7 42.9-6.3 64.4-2.1 28.3-3.4 56.7-2.6 85.1.9 24.1 3.7 48.2 8.3 71.9 4.4 21.8 10.8 43.5 20.8 63.5 21.8 42.4 56.5 78.1 98.8 100.2 38.3 20.2 81.4 31.1 124.6 32.6 43.2 2.2 87.4-.9 128.2-16.2 26.5-10.2 50.4-26.5 71.1-45.8 20.1-19 37.7-40.7 51-65 16.9-30.3 28.8-63.3 36.5-97.1 10.5-46.8 14.8-95 12.7-143zm-22.8 60.9c-.8 11.2-.8 22.5-2.8 33.5-.7 12.7-3 25.2-5.1 37.7-.7 3.5-1.2 7-2.2 10.5-4.4 20.5-11.7 40.3-19.6 59.8h-.2c-2.6 5.9-5.5 11.6-8.6 17.3-4.7 8.7-9.9 17.2-15.3 25.6-8.4 12.2-17.2 24.1-27 35.2-10.8 12.3-22.4 24.1-36.1 33.1-30.4 20.7-66.3 32.1-102.6 36.7-47.2 6.6-96.1 2.6-141.1-13.2-17.4-6.3-34.4-14.1-49.9-24.3-19.3-12.7-35.6-29.3-49.9-47.2-6.7-9.6-12.7-19.7-17.8-30.3-3.7-8.3-7-16.7-9.9-25.3-2.4-7.2-4.8-14.6-6.6-22-4.4-16.2-7-32.9-8.7-49.6l-.3-.2c-.6-5.8-1.3-11.6-1.8-17.4-1.4-13.2-1.9-26.6-2.3-39.9-.2-14.6.2-29.3.4-43.9.4-11.3 1.6-22.6 2.7-33.9 1.9-18.7 3.4-37.5 6.7-56.1 1.2-6.7 2.3-13.4 4.5-19.9.9-2.2 1.9-4.8 4.2-5.8 2.2-1 4.7-.4 7.1.4 30.6 9.6 59.8 23.5 87.5 39.8 10.9 6.5 21.9 13.2 31.7 21.3 2.8 2.3 5.5 5 7.3 8.2-6.6 2.5-13.1 5.3-19.3 8.5-2.5 1.4-5.5 3.3-5.6 6.5-.6 4.4 3.8 8.5 8.1 7.6 4.5-.7 8.7-2.8 12.9-4.6 17.1-7 34.9-12.5 53.2-15.3 7.5-1.3 15.1-2.2 22.7-2.7 29.1-2.3 58.7-.7 87.3 5.5 8.4 1.7 16.7 3.7 24.8 6.4 14.9 4.3 29.2 10.4 42.9 17.6 4.5 2.4 8.6 5.4 13.2 7.6 2.8 1.3 6.6.9 8.5-1.7 2.1-2.6 1.8-6.8-.8-8.9-7.3-5.8-15.9-9.5-23.6-14.5 3.7-4.9 9.5-7.6 14.7-10.6 17.2-9.1 35-16.8 53.3-23.3 13.1-4.6 26.5-8.9 40.3-10.9 4.8-.6 10.4-1.2 14.5 1.9 2.8 2.8 3.1 7 3.7 10.7 3.2 29.9 5.9 60 4.9 90.1z"/>
    <path class="st0 opacity-40" d="M472.7 379.9c29.2-2.3 58.7-.6 87.3 5.5-.4 9.6-1.5 19.1-2.4 28.6-2.5 22.3-5.2 44.7-9.8 66.7-2.8 13.5-6 27-11.3 39.8-1.7 3.3-3.4 7.7-7.5 8.5-3.5.3-5.9-3.1-7.1-5.9-2.8-6.5-3.9-13.5-5.5-20.3-5.1-23.8-11.5-47.4-20-70.3-6.8-18-15.2-35.4-23.7-52.6z"/>
    <path class="st0 opacity-40" d="M396.8 397.9c17.1-7 34.9-12.5 53.2-15.3 3.5 12 6.3 24.1 8.1 36.4 2.2 15.2 3.6 30.6 2.4 45.9-.5 3.4-.8 7.6-3.9 9.7-3.2 1.5-5.5-2-6.7-4.5-3.4-7.5-6.6-15.1-10.7-22.3-10.8-19.1-24.6-37-42.4-49.9z"/>
    <path class="st0 opacity-40" d="M584.8 391.8c14.9 4.3 29.2 10.4 42.9 17.6-4.1 7.7-7.4 15.9-11.7 23.5-7.5 13.7-15.8 27.1-26 39-2.9 3.1-5.8 6.7-10.1 7.7-2.4.7-5.1-1.1-5-3.7-.2-4.4 1.4-8.6 2.3-12.8 5.7-23.2 7.5-47.3 7.6-71.3z"/>
    <path class="st0 opacity-40" d="M248.7 469.9c10.3 10 21.5 19.1 33.6 26.8 7.8 5.3 16.2 9.6 24.1 14.9 2.2 1.6 5.3 3.9 4 7-2.6 3-7.1 2-10.6 2.1-16.7-1.6-33.1-5.3-48.9-10.8-1.3-13.3-1.7-26.7-2.2-40z"/>
    <path class="st0 opacity-40" d="M708.9 508.9c15.7-6.9 31-15 44.7-25.4-.7 12.7-3 25.2-5.1 37.7-13.3 1.2-26.7 1.9-40 .2-3.4-.5-7.1-1-10-3-1.7-1-1.9-3.9-.1-4.9 3.3-1.9 7-3 10.5-4.6z"/>
    <path class="st0 opacity-40" d="M253.1 527.5c20.2 13.7 42 25.2 64.5 34.7 4.2 1.8 8.7 3.2 12.7 5.5 1.5.8 3.2 2.3 2.7 4.2-.6 2.1-3 2.7-4.9 3.4-7.9 2-16.1 2-24.2 2-14.2.1-28.3-1.3-42.5-2.3.1.6.2 1.7.3 2.2-4.3-16.3-6.9-33-8.6-49.7z"/>
    <path class="st0 opacity-40" d="M688.6 570.5c20.9-10.2 41.2-22.2 57.7-38.8-4.5 20.5-11.8 40.3-19.6 59.8h-.2c-14.3-.3-28.8-.7-42.8-4.2-3.3-1-6.9-2-9.5-4.5-1.8-1.6-1.6-4.8.6-6 4.4-2.6 9.3-4 13.8-6.3z"/>
    <path class="st0 opacity-40" d="M268.5 599.2c11.6 3.8 23.4 7.3 35.6 8.8 2.9.5 6.2.5 8.6 2.5 1.7 2.9-1.2 5.3-3.6 6.4-9.6 4.5-20.4 5.2-30.6 7.6-3.8-8.3-7.2-16.7-10-25.3z"/>
    <path class="st0 opacity-40" d="M687 616.9c10.5-1.9 20.9-4.3 30.9-8-4.7 8.8-9.9 17.3-15.3 25.6-6.6-3.7-14.8-5.3-19.6-11.6-2-2.9 1.1-6 4-6z"/>
    <path d="M414.5 488.6c9-2.4 18.8.1 26.3 5.6 10.6 7.7 17.7 19.3 22.7 31.2 8.5 21 11.3 44 10 66.5-1.3 18.3-5.4 36.9-14.6 52.9-5.8 9.9-14.3 19.2-25.7 22.4-9.9 2.9-20.8-.4-28.6-6.8-11.7-9.5-18.8-23.3-23.6-37.3-7.8-23.9-9.4-49.7-5.3-74.5 2.6-15 7.4-30 16.2-42.5 5.6-7.9 13.2-14.9 22.6-17.5"/>
    <path d="M611.5 507.7c9.1-1.7 18.4 2.7 24.3 9.6 9.1 10.5 13.2 24.3 15.3 37.7 3 22.6.4 46-8 67.2-4.8 11.5-11.3 22.9-21.5 30.5-6.8 5.1-16 7.6-24.2 4.7-9.8-3.3-16.4-12.1-20.7-21.1-7.3-15.8-9-33.6-8.2-50.8 1.3-20.1 6.3-40.5 17.3-57.6 6.1-9.3 14.6-17.9 25.7-20.2"/>
    <path class="st1" fill="#ededed" d="M428.4 518.6c6.4-2.3 13.5 2.5 14.7 9.1 7.3 32.3 7 66.3.1 98.6-.8 5.5-5.3 10.7-11.1 10.6-6.8.6-12.5-6.3-11.3-12.9 6.5-30.2 7-61.8.3-92-1.4-5.5 1.9-11.7 7.3-13.4z"/>
    <path class="st1" fill="#ededed" d="M616.5 536.7c5.8-2.3 12.2 2.4 12.7 8.3 4.2 25.7 1.5 52.3-5.6 77.2-1.5 4.4-2.3 10-6.8 12.5-4.7 2.9-11.5.4-13.2-4.8-1.7-4.3.6-8.6 1.7-12.6 6.7-23 8.8-47.5 5.1-71.2-.3-4.1 2.3-8.1 6.1-9.4z"/>
    <path class="st2" d="M648.8 307c-4.3-14.6-13.2-27.4-22.9-38.9-11-13.1-24.5-23.9-39-32.9-3.8-2.5-8.4-1.6-12.5-.5-24.6 6-49.7 9.8-74.5 14.7-24.5 4.8-49.1 8.7-73.6 13.4-2 .6-4.8.7-5.6 3-2.6 5.8-5 11.7-7.6 17.5-.7 1.9-2.4 4.4-.3 6 4.8 4.1 9.2 9.4 9.9 15.8.7 4.7-1.9 9.7-6.3 11.6-3.2 1.7-6.9 1.3-10.4 1.7-2 .1-2.2 2.4-2.7 3.9l-9.9 39c-.5 2.3-1.5 5.8 1.1 7.2 5.5 2.3 11.3 3.5 17 5.2 38.4 10.8 76.7 22.1 115 33.1 22.3 6.5 44.5 13.5 66.9 19.7 2.2.5 4.7 1.1 6.7-.2 1.9-1.3 3.3-3.3 4.6-5.2 7.3-10.5 13.2-22 18.5-33.7 7.6-17.6 15.1-35.3 21.9-53.3 3.1-8.7 6.4-18 3.7-27.1z"/>
    <path class="st0" fill="#ffd400" d="M566.8 250.6c3.4-.6 6.8-1.6 10.2-1.6 3.2 0 5.9 1.7 8.5 3.4 15.7 10.2 29.3 23.7 39.6 39.4 2.6 4.3 5.8 8.5 6.9 13.5-1.7.2-3.3.4-5 0-31.1-5.5-62.2-10.7-93.2-16.3-4.8-.2-4.7-5.9-7-8.9-6.8-9.9-21.2-12.4-31.7-7.3-3.4 1.4-6.1 4.1-8.7 6.6-2.2 2.2-5.5.8-8.2.4-9.7-2.2-19.6-3.5-29.2-6.1 1.5-.7 3-1.2 4.5-1.5 37.8-7.1 75.6-14.4 113.3-21.6z"/>
    <path class="st0" fill="#ffd400" d="M429.4 281.4c1.5-1.4 3.6-.6 5.3-.4 15 3.1 30.1 5.8 45 9 2.8.4 3.5 3.4 4.5 5.6 2.1 6 7.7 10.2 13.6 12.1 8 2.7 17.3 1.2 24.1-3.9 2.1-1.5 3.7-3.7 5.7-5.3 1.5-.9 3.4-.2 5.1-.1 31.8 5.5 63.6 11 95.3 16.5 2.1.4 5.3 1.1 4.9 3.9-.7 4-2.3 7.9-3.5 11.8-9 26.8-19.3 53.4-34.7 77.2-1.2 2-3.9 1.7-5.8 1.1-58-17.3-116.1-34.7-174.1-52-2.3-.6-5.6-1.9-4.9-4.9 1.3-6.3 2.8-12.6 4.4-18.9.7-3.6 4.4-4.9 7-6.8 7.2-4.6 12.4-12.8 12.2-21.5.2-5.9-2.7-11.2-5.7-16.1-1.6-2.2 0-5.3 1.6-7.3m25 40.3c-8.1 1.8-14.7 9.9-13.6 18.3 1 7.5 7.7 13.4 15.1 14 10.4 1.3 21.1-8.2 19.6-18.9-1-9.7-12-16-21.1-13.4m113.9 10.9c-10.1 2.5-17.3 12.2-17.8 22.5-1 13.3 8.4 26.6 21.4 29.8 10.1 3 21.8-1.9 26.8-11.2 4.5-7.6 4.5-17.3.8-25.2-5-11.4-18.7-19.6-31.2-15.9z"/>
    <path class="st1" fill="#e94000" d="M503.2 280.2c5.7-1 12.7.4 15.9 5.7 2.1 3.3.6 7.6-2.2 10-5.1 4.2-12.8 4.7-18.7 1.8-3.2-1.6-6.1-5-5.4-8.8.8-4.9 5.9-7.9 10.4-8.7z"/>
    <path class="st1" fill="#e94000" d="M455.3 331.4c4.4-1.9 10.5.4 10.8 5.6 0 7.1-10.6 10.2-14.7 4.6-2.6-3.7-.1-8.9 3.9-10.2z"/>
    <path class="st1" fill="#e94000" d="M569.3 342.2c7.2-2.6 15.4.7 19.6 6.8 5.5 7.3 5.2 19.5-2.9 24.8-7.8 5.1-18.7.9-23-6.9-5.3-7.9-3.4-21.1 6.3-24.7z"/>
</svg>
